<svg version="1.1" viewBox="0.0 0.0 985.2834645669292 855.7559055118111" fill="none" stroke="none" stroke-linecap="square" stroke-miterlimit="10" xmlns:xlink="http://www.w3.org/1999/xlink" xmlns="http://www.w3.org/2000/svg"><clipPath id="p.0"><path d="m0 0l985.28345 0l0 855.7559l-985.28345 0l0 -855.7559z" clip-rule="nonzero"/></clipPath><g clip-path="url(#p.0)"><path fill="#000000" fill-opacity="0.0" d="m0 0l985.28345 0l0 855.7559l-985.28345 0z" fill-rule="evenodd"/><path fill="#ffffff" d="m1.0734909 0l985.2913 0l0 855.74805l-985.2913 0z" fill-rule="evenodd"/><path fill="#000000" fill-opacity="0.0" d="m644.5079 500.94882l321.95276 0l0 278.77164l-321.95276 0z" fill-rule="evenodd"/><path stroke="#000000" stroke-width="1.0" stroke-linejoin="round" stroke-linecap="butt" d="m644.5079 500.94882l321.95276 0l0 278.77164l-321.95276 0z" fill-rule="evenodd"/><path fill="#000000" fill-opacity="0.0" d="m333.53937 497.56168l195.1496 0l0 278.77164l-195.1496 0z" fill-rule="evenodd"/><path stroke="#000000" stroke-width="1.0" stroke-linejoin="round" stroke-linecap="butt" d="m333.53937 497.56168l195.1496 0l0 278.77164l-195.1496 0z" fill-rule="evenodd"/><path fill="#000000" fill-opacity="0.0" d="m94.56562 497.56168l195.1496 0l0 278.77164l-195.1496 0z" fill-rule="evenodd"/><path stroke="#000000" stroke-width="1.0" stroke-linejoin="round" stroke-linecap="butt" d="m94.56562 497.56168l195.1496 0l0 278.77164l-195.1496 0z" fill-rule="evenodd"/><path fill="#000000" fill-opacity="0.0" d="m333.53937 65.561676l195.1496 0l0 278.77167l-195.1496 0z" fill-rule="evenodd"/><path stroke="#000000" stroke-width="1.0" stroke-linejoin="round" stroke-linecap="butt" d="m333.53937 65.561676l195.1496 0l0 278.77167l-195.1496 0z" fill-rule="evenodd"/><path fill="#000000" fill-opacity="0.0" d="m94.56562 65.561676l195.1496 0l0 278.77167l-195.1496 0z" fill-rule="evenodd"/><path stroke="#000000" stroke-width="1.0" stroke-linejoin="round" stroke-linecap="butt" d="m94.56562 65.561676l195.1496 0l0 278.77167l-195.1496 0z" fill-rule="evenodd"/><path fill="#333333" d="m109.15092 104.68241l0 0c0 -12.454666 10.096512 -22.551178 22.551186 -22.551178l0 0c5.980942 0 11.716919 2.3759232 15.946091 6.6050873c4.2291718 4.2291718 6.6050873 9.965149 6.6050873 15.946091l0 0c0 12.454674 -10.096512 22.551186 -22.551178 22.551186l0 0c-12.454674 0 -22.551186 -10.096512 -22.551186 -22.551186zm11.275589 0l0 0c0 6.2273407 5.048256 11.275597 11.275597 11.275597c6.2273407 0 11.275589 -5.048256 11.275589 -11.275597c0 -6.227333 -5.0482483 -11.275589 -11.275589 -11.275589l0 0c-6.2273407 0 -11.275597 5.048256 -11.275597 11.275589z" fill-rule="evenodd"/><path fill="#999999" d="m468.99933 82.13123l45.102356 0l0 45.102364l-45.102356 0z" fill-rule="evenodd"/><path fill="#b50a08" d="m230.02362 82.13123l45.102356 0l0 45.102364l-45.102356 0z" fill-rule="evenodd"/><path fill="#674ea7" d="m408.56235 82.13123l45.102356 0l0 45.102364l-45.102356 0z" fill-rule="evenodd"/><path fill="#1155cc" d="m169.58792 82.13123l45.10237 0l0 45.102364l-45.10237 0z" fill-rule="evenodd"/><path fill="#333333" d="m348.1273 104.68241l0 0c0 -12.454666 10.096527 -22.551178 22.551178 -22.551178l0 0c5.980957 0 11.716949 2.3759232 15.946106 6.6050873c4.2291565 4.2291718 6.605072 9.965149 6.605072 15.946091l0 0c0 12.454674 -10.096497 22.551186 -22.551178 22.551186l0 0c-12.454651 0 -22.551178 -10.096512 -22.551178 -22.551186z" fill-rule="evenodd"/><path fill="#333333" d="m109.15092 193.22047l22.551186 -45.10237l22.551178 45.10237z" fill-rule="evenodd"/><path fill="#999999" d="m468.99933 148.1181l45.102356 0l0 45.10237l-45.102356 0z" fill-rule="evenodd"/><path fill="#b50a08" d="m230.02362 148.1181l45.102356 0l0 45.10237l-45.102356 0z" fill-rule="evenodd"/><path fill="#674ea7" d="m408.56235 148.1181l45.102356 0l0 45.10237l-45.102356 0z" fill-rule="evenodd"/><path fill="#1155cc" d="m169.58792 148.1181l45.10237 0l0 45.10237l-45.10237 0z" fill-rule="evenodd"/><path fill="#333333" d="m348.1273 170.6693l0 0c0 -12.454681 10.096527 -22.551193 22.551178 -22.551193l0 0c5.980957 0 11.716949 2.3759308 15.946106 6.6051025c4.2291565 4.2291565 6.605072 9.965134 6.605072 15.946091l0 0c0 12.454666 -10.096497 22.551178 -22.551178 22.551178l0 0c-12.454651 0 -22.551178 -10.096512 -22.551178 -22.551178zm11.275604 0l0 0c0 6.2273254 5.0482483 11.275589 11.275574 11.275589c6.227356 0 11.275604 -5.0482635 11.275604 -11.275589c0 -6.2273407 -5.0482483 -11.275589 -11.275604 -11.275589l0 0c-6.2273254 0 -11.275574 5.0482483 -11.275574 11.275589z" fill-rule="evenodd"/><path fill="#333333" d="m109.15092 236.65617l22.551186 -22.551193l22.551178 22.551193l-22.551178 22.551163z" fill-rule="evenodd"/><path fill="#999999" d="m468.99933 214.10498l45.102356 0l0 45.102356l-45.102356 0z" fill-rule="evenodd"/><path fill="#b50a08" d="m230.02362 214.10498l45.102356 0l0 45.102356l-45.102356 0z" fill-rule="evenodd"/><path fill="#674ea7" d="m408.56235 214.10498l45.102356 0l0 45.102356l-45.102356 0z" fill-rule="evenodd"/><path fill="#1155cc" d="m169.58792 214.10498l45.10237 0l0 45.102356l-45.10237 0z" fill-rule="evenodd"/><path fill="#333333" d="m348.12735 231.33252l22.551117 -17.22754l22.551147 17.22754l-8.61377 27.874725l-27.874725 0z" fill-rule="evenodd"/><path fill="#333333" d="m109.15096 297.3194l22.55114 -17.22754l22.551132 17.22754l-8.61377 27.874725l-27.874733 0z" fill-rule="evenodd"/><path fill="#999999" d="m468.99933 280.09186l45.102356 0l0 45.102356l-45.102356 0z" fill-rule="evenodd"/><path fill="#b50a08" d="m230.02362 280.09186l45.102356 0l0 45.102356l-45.102356 0z" fill-rule="evenodd"/><path fill="#674ea7" d="m408.56235 280.09186l45.102356 0l0 45.102356l-45.102356 0z" fill-rule="evenodd"/><path fill="#1155cc" d="m169.58792 280.09186l45.10237 0l0 45.102356l-45.10237 0z" fill-rule="evenodd"/><path fill="#333333" d="m348.1273 325.1942l22.551178 -45.102356l22.551178 45.102356z" fill-rule="evenodd"/><path fill="#000000" fill-opacity="0.0" d="m347.82285 16.52231l166.58267 0l0 49.039368l-166.58267 0z" fill-rule="evenodd"/><path fill="#333333" d="m358.68222 48.56231l0 -17.187498l5.90625 0q2.015625 0 3.0625 0.25q1.484375 0.34375 2.515625 1.2343731q1.359375 1.140625 2.03125 2.9375q0.6875 1.78125 0.6875 4.078125q0 1.953125 -0.46875 3.46875q-0.453125 1.515625 -1.171875 2.515625q-0.703125 0.984375 -1.5625 1.546875q-0.84375 0.5625 -2.046875 0.859375q-1.203125 0.296875 -2.765625 0.296875l-6.1875 0zm2.265625 -2.03125l3.671875 0q1.703125 0 2.65625 -0.3125q0.96875 -0.3125 1.546875 -0.890625q0.8125 -0.8125 1.265625 -2.171875q0.453125 -1.375 0.453125 -3.3125q0 -2.703125 -0.890625 -4.140625q-0.890625 -1.453125 -2.15625 -1.9375q-0.90625 -0.359375 -2.9375 -0.359375l-3.609375 0l0 13.125zm22.910156 0.5q-1.171875 0.984375 -2.265625 1.40625q-1.078125 0.40625 -2.3125 0.40625q-2.046875 0 -3.15625 -1.0q-1.09375 -1.0 -1.09375 -2.5625q0 -0.921875 0.40625 -1.671875q0.421875 -0.75 1.09375 -1.203125q0.671875 -0.46875 1.515625 -0.703125q0.625 -0.15625 1.875 -0.3125q2.5625 -0.3125 3.765625 -0.734375q0.015625 -0.421875 0.015625 -0.546875q0 -1.28125 -0.609375 -1.8125q-0.796875 -0.71875 -2.390625 -0.71875q-1.5 0 -2.203125 0.53125q-0.703125 0.515625 -1.046875 1.84375l-2.0625 -0.28125q0.28125 -1.328125 0.921875 -2.140625q0.640625 -0.8125 1.859375 -1.25q1.21875 -0.453125 2.828125 -0.453125q1.59375 0 2.59375 0.375q1.0 0.375 1.46875 0.953125q0.46875 0.5625 0.65625 1.4375q0.09375 0.53125 0.09375 1.9375l0 2.8125q0 2.9375 0.140625 3.71875q0.140625 0.78125 0.53125 1.5l-2.203125 0q-0.328125 -0.65625 -0.421875 -1.53125zm-0.171875 -4.71875q-1.15625 0.46875 -3.453125 0.796875q-1.296875 0.1875 -1.84375 0.421875q-0.53125 0.234375 -0.828125 0.6875q-0.28125 0.453125 -0.28125 1.0q0 0.84375 0.625 1.40625q0.640625 0.5625 1.875 0.5625q1.21875 0 2.171875 -0.53125q0.953125 -0.53125 1.390625 -1.453125q0.34375 -0.71875 0.34375 -2.109375l0 -0.78125zm10.003906 4.359375l0.3125 1.859375q-0.890625 0.203125 -1.59375 0.203125q-1.15625 0 -1.796875 -0.359375q-0.625 -0.375 -0.890625 -0.96875q-0.25 -0.59375 -0.25 -2.484375l0 -7.171875l-1.546875 0l0 -1.640625l1.546875 0l0 -3.078125l2.09375 -1.2656231l0 4.343748l2.125 0l0 1.640625l-2.125 0l0 7.28125q0 0.90625 0.109375 1.171875q0.125 0.25 0.375 0.40625q0.25 0.140625 0.71875 0.140625q0.34375 0 0.921875 -0.078125zm10.183594 0.359375q-1.171875 0.984375 -2.265625 1.40625q-1.078125 0.40625 -2.3125 0.40625q-2.046875 0 -3.15625 -1.0q-1.09375 -1.0 -1.09375 -2.5625q0 -0.921875 0.40625 -1.671875q0.421875 -0.75 1.09375 -1.203125q0.671875 -0.46875 1.515625 -0.703125q0.625 -0.15625 1.875 -0.3125q2.5625 -0.3125 3.765625 -0.734375q0.015625 -0.421875 0.015625 -0.546875q0 -1.28125 -0.609375 -1.8125q-0.796875 -0.71875 -2.390625 -0.71875q-1.5 0 -2.203125 0.53125q-0.703125 0.515625 -1.046875 1.84375l-2.0625 -0.28125q0.28125 -1.328125 0.921875 -2.140625q0.640625 -0.8125 1.859375 -1.25q1.21875 -0.453125 2.828125 -0.453125q1.59375 0 2.59375 0.375q1.0 0.375 1.46875 0.953125q0.46875 0.5625 0.65625 1.4375q0.09375 0.53125 0.09375 1.9375l0 2.8125q0 2.9375 0.140625 3.71875q0.140625 0.78125 0.53125 1.5l-2.203125 0q-0.328125 -0.65625 -0.421875 -1.53125zm-0.171875 -4.71875q-1.15625 0.46875 -3.453125 0.796875q-1.296875 0.1875 -1.84375 0.421875q-0.53125 0.234375 -0.828125 0.6875q-0.28125 0.453125 -0.28125 1.0q0 0.84375 0.625 1.40625q0.640625 0.5625 1.875 0.5625q1.21875 0 2.171875 -0.53125q0.953125 -0.53125 1.390625 -1.453125q0.34375 -0.71875 0.34375 -2.109375l0 -0.78125zm5.7851562 6.25l0 -17.187498l11.59375 0l0 2.031248l-9.3125 0l0 5.328125l8.0625 0l0 2.015625l-8.0625 0l0 7.8125l-2.28125 0zm14.253906 0l0 -12.453125l1.890625 0l0 1.890625q0.734375 -1.328125 1.34375 -1.75q0.625 -0.421875 1.359375 -0.421875q1.0625 0 2.171875 0.6875l-0.734375 1.953125q-0.765625 -0.453125 -1.546875 -0.453125q-0.6875 0 -1.25 0.421875q-0.546875 0.40625 -0.78125 1.140625q-0.34375 1.125 -0.34375 2.46875l0 6.515625l-2.109375 0zm16.132812 -1.53125q-1.171875 0.984375 -2.265625 1.40625q-1.078125 0.40625 -2.3125 0.40625q-2.046875 0 -3.15625 -1.0q-1.09375 -1.0 -1.09375 -2.5625q0 -0.921875 0.40625 -1.671875q0.421875 -0.75 1.09375 -1.203125q0.671875 -0.46875 1.515625 -0.703125q0.625 -0.15625 1.875 -0.3125q2.5625 -0.3125 3.765625 -0.734375q0.015625 -0.421875 0.015625 -0.546875q0 -1.28125 -0.609375 -1.8125q-0.796875 -0.71875 -2.390625 -0.71875q-1.5 0 -2.203125 0.53125q-0.703125 0.515625 -1.046875 1.84375l-2.0625 -0.28125q0.28125 -1.328125 0.921875 -2.140625q0.640625 -0.8125 1.859375 -1.25q1.21875 -0.453125 2.828125 -0.453125q1.59375 0 2.59375 0.375q1.0 0.375 1.46875 0.953125q0.46875 0.5625 0.65625 1.4375q0.09375 0.53125 0.09375 1.9375l0 2.8125q0 2.9375 0.140625 3.71875q0.140625 0.78125 0.53125 1.5l-2.203125 0q-0.328125 -0.65625 -0.421875 -1.53125zm-0.171875 -4.71875q-1.15625 0.46875 -3.453125 0.796875q-1.296875 0.1875 -1.84375 0.421875q-0.53125 0.234375 -0.828125 0.6875q-0.28125 0.453125 -0.28125 1.0q0 0.84375 0.625 1.40625q0.640625 0.5625 1.875 0.5625q1.21875 0 2.171875 -0.53125q0.953125 -0.53125 1.390625 -1.453125q0.34375 -0.71875 0.34375 -2.109375l0 -0.78125zm5.3945312 6.25l0 -12.453125l1.890625 0l0 1.75q0.59375 -0.90625 1.5625 -1.46875q0.96875 -0.5625 2.21875 -0.5625q1.375 0 2.25 0.578125q0.890625 0.578125 1.265625 1.609375q1.46875 -2.1875 3.84375 -2.1875q1.84375 0 2.84375 1.03125q1.0 1.03125 1.0 3.15625l0 8.546875l-2.109375 0l0 -7.84375q0 -1.265625 -0.203125 -1.8125q-0.203125 -0.5625 -0.75 -0.90625q-0.53125 -0.34375 -1.25 -0.34375q-1.3125 0 -2.1875 0.875q-0.859375 0.875 -0.859375 2.796875l0 7.234375l-2.109375 0l0 -8.09375q0 -1.40625 -0.515625 -2.109375q-0.515625 -0.703125 -1.6875 -0.703125q-0.890625 0 -1.65625 0.46875q-0.75 0.46875 -1.09375 1.375q-0.34375 0.90625 -0.34375 2.609375l0 6.453125l-2.109375 0zm28.523438 -4.015625l2.171875 0.28125q-0.515625 1.90625 -1.90625 2.96875q-1.390625 1.046875 -3.5625 1.046875q-2.734375 0 -4.34375 -1.671875q-1.59375 -1.6875 -1.59375 -4.734375q0 -3.140625 1.609375 -4.875q1.625 -1.734375 4.203125 -1.734375q2.5 0 4.078125 1.703125q1.59375 1.703125 1.59375 4.78125q0 0.1875 -0.015625 0.5625l-9.28125 0q0.109375 2.046875 1.15625 3.140625q1.046875 1.09375 2.609375 1.09375q1.15625 0 1.96875 -0.609375q0.828125 -0.609375 1.3125 -1.953125zm-6.9375 -3.40625l6.953125 0q-0.140625 -1.5625 -0.796875 -2.359375q-1.0 -1.21875 -2.609375 -1.21875q-1.453125 0 -2.453125 0.984375q-0.984375 0.96875 -1.09375 2.59375zm28.921875 5.390625l0 2.03125l-11.34375 0q-0.03125 -0.765625 0.234375 -1.46875q0.4375 -1.15625 1.390625 -2.28125q0.953125 -1.125 2.765625 -2.609375q2.796875 -2.296875 3.78125 -3.625q0.984375 -1.34375 0.984375 -2.546875q0 -1.25 -0.90625 -2.109375q-0.890625 -0.859375 -2.328125 -0.859375q-1.515625 0 -2.4375 0.921875q-0.90625 0.90625 -0.921875 2.515625l-2.171875 -0.21875q0.21875 -2.421875 1.671875 -3.6875q1.453125 -1.2812481 3.90625 -1.2812481q2.46875 0 3.90625 1.3749981q1.453125 1.359375 1.453125 3.390625q0 1.03125 -0.421875 2.03125q-0.421875 1.0 -1.40625 2.109375q-0.96875 1.09375 -3.25 3.015625q-1.890625 1.59375 -2.4375 2.15625q-0.53125 0.5625 -0.890625 1.140625l8.421875 0z" fill-rule="nonzero"/><path fill="#000000" fill-opacity="0.0" d="m108.84908 16.52231l166.58267 0l0 49.039368l-166.58267 0z" fill-rule="evenodd"/><path fill="#333333" d="m119.70846 48.56231l0 -17.187498l5.90625 0q2.015625 0 3.0624924 0.25q1.484375 0.34375 2.515625 1.2343731q1.359375 1.140625 2.03125 2.9375q0.6875 1.78125 0.6875 4.078125q0 1.953125 -0.46875 3.46875q-0.453125 1.515625 -1.171875 2.515625q-0.703125 0.984375 -1.5625 1.546875q-0.84375 0.5625 -2.046875 0.859375q-1.2031174 0.296875 -2.7656174 0.296875l-6.1875 0zm2.265625 -2.03125l3.671875 0q1.703125 0 2.6562424 -0.3125q0.96875 -0.3125 1.546875 -0.890625q0.8125 -0.8125 1.265625 -2.171875q0.453125 -1.375 0.453125 -3.3125q0 -2.703125 -0.890625 -4.140625q-0.890625 -1.453125 -2.15625 -1.9375q-0.9062424 -0.359375 -2.9374924 -0.359375l-3.609375 0l0 13.125zm22.910149 0.5q-1.171875 0.984375 -2.265625 1.40625q-1.078125 0.40625 -2.3125 0.40625q-2.046875 0 -3.15625 -1.0q-1.09375 -1.0 -1.09375 -2.5625q0 -0.921875 0.40625 -1.671875q0.421875 -0.75 1.09375 -1.203125q0.671875 -0.46875 1.515625 -0.703125q0.625 -0.15625 1.875 -0.3125q2.5625 -0.3125 3.765625 -0.734375q0.015625 -0.421875 0.015625 -0.546875q0 -1.28125 -0.609375 -1.8125q-0.796875 -0.71875 -2.390625 -0.71875q-1.5 0 -2.203125 0.53125q-0.703125 0.515625 -1.046875 1.84375l-2.0625 -0.28125q0.28125 -1.328125 0.921875 -2.140625q0.640625 -0.8125 1.859375 -1.25q1.21875 -0.453125 2.828125 -0.453125q1.59375 0 2.59375 0.375q1.0 0.375 1.46875 0.953125q0.46875 0.5625 0.65625 1.4375q0.09375 0.53125 0.09375 1.9375l0 2.8125q0 2.9375 0.140625 3.71875q0.140625 0.78125 0.53125 1.5l-2.203125 0q-0.328125 -0.65625 -0.421875 -1.53125zm-0.171875 -4.71875q-1.15625 0.46875 -3.453125 0.796875q-1.296875 0.1875 -1.84375 0.421875q-0.53125 0.234375 -0.828125 0.6875q-0.28125 0.453125 -0.28125 1.0q0 0.84375 0.625 1.40625q0.640625 0.5625 1.875 0.5625q1.21875 0 2.171875 -0.53125q0.953125 -0.53125 1.390625 -1.453125q0.34375 -0.71875 0.34375 -2.109375l0 -0.78125zm10.003906 4.359375l0.3125 1.859375q-0.890625 0.203125 -1.59375 0.203125q-1.15625 0 -1.796875 -0.359375q-0.625 -0.375 -0.890625 -0.96875q-0.25 -0.59375 -0.25 -2.484375l0 -7.171875l-1.546875 0l0 -1.640625l1.546875 0l0 -3.078125l2.09375 -1.2656231l0 4.343748l2.125 0l0 1.640625l-2.125 0l0 7.28125q0 0.90625 0.109375 1.171875q0.125 0.25 0.375 0.40625q0.25 0.140625 0.71875 0.140625q0.34375 0 0.921875 -0.078125zm10.183594 0.359375q-1.171875 0.984375 -2.265625 1.40625q-1.078125 0.40625 -2.3125 0.40625q-2.046875 0 -3.15625 -1.0q-1.09375 -1.0 -1.09375 -2.5625q0 -0.921875 0.40625 -1.671875q0.421875 -0.75 1.09375 -1.203125q0.671875 -0.46875 1.515625 -0.703125q0.625 -0.15625 1.875 -0.3125q2.5625 -0.3125 3.765625 -0.734375q0.015625 -0.421875 0.015625 -0.546875q0 -1.28125 -0.609375 -1.8125q-0.796875 -0.71875 -2.390625 -0.71875q-1.5 0 -2.203125 0.53125q-0.703125 0.515625 -1.046875 1.84375l-2.0625 -0.28125q0.28125 -1.328125 0.921875 -2.140625q0.640625 -0.8125 1.859375 -1.25q1.21875 -0.453125 2.828125 -0.453125q1.59375 0 2.59375 0.375q1.0 0.375 1.46875 0.953125q0.46875 0.5625 0.65625 1.4375q0.09375 0.53125 0.09375 1.9375l0 2.8125q0 2.9375 0.140625 3.71875q0.140625 0.78125 0.53125 1.5l-2.203125 0q-0.328125 -0.65625 -0.421875 -1.53125zm-0.171875 -4.71875q-1.15625 0.46875 -3.453125 0.796875q-1.296875 0.1875 -1.84375 0.421875q-0.53125 0.234375 -0.828125 0.6875q-0.28125 0.453125 -0.28125 1.0q0 0.84375 0.625 1.40625q0.640625 0.5625 1.875 0.5625q1.21875 0 2.171875 -0.53125q0.953125 -0.53125 1.390625 -1.453125q0.34375 -0.71875 0.34375 -2.109375l0 -0.78125zm5.7851562 6.25l0 -17.187498l11.59375 0l0 2.031248l-9.3125 0l0 5.328125l8.0625 0l0 2.015625l-8.0625 0l0 7.8125l-2.28125 0zm14.253906 0l0 -12.453125l1.890625 0l0 1.890625q0.734375 -1.328125 1.34375 -1.75q0.625 -0.421875 1.359375 -0.421875q1.0625 0 2.171875 0.6875l-0.734375 1.953125q-0.765625 -0.453125 -1.546875 -0.453125q-0.6875 0 -1.25 0.421875q-0.546875 0.40625 -0.78125 1.140625q-0.34375 1.125 -0.34375 2.46875l0 6.515625l-2.109375 0zm16.132812 -1.53125q-1.171875 0.984375 -2.265625 1.40625q-1.078125 0.40625 -2.3125 0.40625q-2.046875 0 -3.15625 -1.0q-1.09375 -1.0 -1.09375 -2.5625q0 -0.921875 0.40625 -1.671875q0.421875 -0.75 1.09375 -1.203125q0.671875 -0.46875 1.515625 -0.703125q0.625 -0.15625 1.875 -0.3125q2.5625 -0.3125 3.765625 -0.734375q0.015625 -0.421875 0.015625 -0.546875q0 -1.28125 -0.609375 -1.8125q-0.796875 -0.71875 -2.390625 -0.71875q-1.5 0 -2.203125 0.53125q-0.703125 0.515625 -1.046875 1.84375l-2.0625 -0.28125q0.28125 -1.328125 0.921875 -2.140625q0.640625 -0.8125 1.859375 -1.25q1.21875 -0.453125 2.828125 -0.453125q1.59375 0 2.59375 0.375q1.0 0.375 1.46875 0.953125q0.46875 0.5625 0.65625 1.4375q0.09375 0.53125 0.09375 1.9375l0 2.8125q0 2.9375 0.140625 3.71875q0.140625 0.78125 0.53125 1.5l-2.203125 0q-0.328125 -0.65625 -0.421875 -1.53125zm-0.171875 -4.71875q-1.15625 0.46875 -3.453125 0.796875q-1.296875 0.1875 -1.84375 0.421875q-0.53125 0.234375 -0.828125 0.6875q-0.28125 0.453125 -0.28125 1.0q0 0.84375 0.625 1.40625q0.640625 0.5625 1.875 0.5625q1.21875 0 2.171875 -0.53125q0.953125 -0.53125 1.390625 -1.453125q0.34375 -0.71875 0.34375 -2.109375l0 -0.78125zm5.3945312 6.25l0 -12.453125l1.890625 0l0 1.75q0.59375 -0.90625 1.5625 -1.46875q0.96875 -0.5625 2.21875 -0.5625q1.375 0 2.25 0.578125q0.890625 0.578125 1.265625 1.609375q1.46875 -2.1875 3.84375 -2.1875q1.84375 0 2.84375 1.03125q1.0 1.03125 1.0 3.15625l0 8.546875l-2.109375 0l0 -7.84375q0 -1.265625 -0.203125 -1.8125q-0.203125 -0.5625 -0.75 -0.90625q-0.53125 -0.34375 -1.25 -0.34375q-1.3125 0 -2.1875 0.875q-0.859375 0.875 -0.859375 2.796875l0 7.234375l-2.109375 0l0 -8.09375q0 -1.40625 -0.515625 -2.109375q-0.515625 -0.703125 -1.6875 -0.703125q-0.890625 0 -1.65625 0.46875q-0.75 0.46875 -1.09375 1.375q-0.34375 0.90625 -0.34375 2.609375l0 6.453125l-2.109375 0zm28.523438 -4.015625l2.171875 0.28125q-0.515625 1.90625 -1.90625 2.96875q-1.390625 1.046875 -3.5625 1.046875q-2.734375 0 -4.34375 -1.671875q-1.59375 -1.6875 -1.59375 -4.734375q0 -3.140625 1.609375 -4.875q1.625 -1.734375 4.203125 -1.734375q2.5 0 4.078125 1.703125q1.59375 1.703125 1.59375 4.78125q0 0.1875 -0.015625 0.5625l-9.28125 0q0.109375 2.046875 1.15625 3.140625q1.046875 1.09375 2.609375 1.09375q1.15625 0 1.96875 -0.609375q0.828125 -0.609375 1.3125 -1.953125zm-6.9375 -3.40625l6.953125 0q-0.140625 -1.5625 -0.796875 -2.359375q-1.0 -1.21875 -2.609375 -1.21875q-1.453125 0 -2.453125 0.984375q-0.984375 0.96875 -1.09375 2.59375zm25.78125 7.421875l-2.109375 0l0 -13.4375q-0.75 0.71875 -2.0 1.453125q-1.234375 0.71875 -2.21875 1.078125l0 -2.03125q1.78125 -0.828125 3.09375 -2.015625q1.328125 -1.1875 1.875 -2.296873l1.359375 0l0 17.249998z" fill-rule="nonzero"/><path fill="#333333" d="m109.15092 536.68243l0 0c0 -12.454712 10.096512 -22.551208 22.551186 -22.551208l0 0c5.980942 0 11.716919 2.3759155 15.946091 6.6051025c4.2291718 4.229187 6.6050873 9.965149 6.6050873 15.946106l0 0c0 12.454651 -10.096512 22.551147 -22.551178 22.551147l0 0c-12.454674 0 -22.551186 -10.096497 -22.551186 -22.551147zm11.275589 0l0 0c0 6.227295 5.048256 11.275574 11.275597 11.275574c6.2273407 0 11.275589 -5.048279 11.275589 -11.275574c0 -6.227356 -5.0482483 -11.275635 -11.275589 -11.275635l0 0c-6.2273407 0 -11.275597 5.048279 -11.275597 11.275635z" fill-rule="evenodd"/><path fill="#999999" d="m468.99933 794.1312l45.102356 0l0 45.102356l-45.102356 0z" fill-rule="evenodd"/><path fill="#b50a08" d="m230.02362 514.1312l45.102356 0l0 45.102356l-45.102356 0z" fill-rule="evenodd"/><path fill="#674ea7" d="m408.56235 794.1312l45.102356 0l0 45.102356l-45.102356 0z" fill-rule="evenodd"/><path fill="#1155cc" d="m169.58792 514.1312l45.10237 0l0 45.102356l-45.10237 0z" fill-rule="evenodd"/><path fill="#333333" d="m348.1273 816.68243l0 0c0 -12.454712 10.096527 -22.551208 22.551178 -22.551208l0 0c5.980957 0 11.716949 2.3759155 15.946106 6.6051025c4.2291565 4.229187 6.605072 9.965149 6.605072 15.946106l0 0c0 12.454651 -10.096497 22.551147 -22.551178 22.551147l0 0c-12.454651 0 -22.551178 -10.096497 -22.551178 -22.551147z" fill-rule="evenodd"/><path fill="#333333" d="m109.15092 625.22046l22.551186 -45.102356l22.551178 45.102356z" fill-rule="evenodd"/><path fill="#999999" d="m468.99933 514.1312l45.102356 0l0 45.102356l-45.102356 0z" fill-rule="evenodd"/><path fill="#b50a08" d="m230.02362 580.1181l45.102356 0l0 45.102356l-45.102356 0z" fill-rule="evenodd"/><path fill="#674ea7" d="m408.56235 514.1312l45.102356 0l0 45.102356l-45.102356 0z" fill-rule="evenodd"/><path fill="#1155cc" d="m169.58792 580.1181l45.10237 0l0 45.102356l-45.10237 0z" fill-rule="evenodd"/><path fill="#333333" d="m348.1273 536.68243l0 0c0 -12.454712 10.096527 -22.551208 22.551178 -22.551208l0 0c5.980957 0 11.716949 2.3759155 15.946106 6.6051025c4.2291565 4.229187 6.605072 9.965149 6.605072 15.946106l0 0c0 12.454651 -10.096497 22.551147 -22.551178 22.551147l0 0c-12.454651 0 -22.551178 -10.096497 -22.551178 -22.551147zm11.275604 0l0 0c0 6.227295 5.0482483 11.275574 11.275574 11.275574c6.227356 0 11.275604 -5.048279 11.275604 -11.275574c0 -6.227356 -5.0482483 -11.275635 -11.275604 -11.275635l0 0c-6.2273254 0 -11.275574 5.048279 -11.275574 11.275635z" fill-rule="evenodd"/><path fill="#333333" d="m109.15092 668.6562l22.551186 -22.551208l22.551178 22.551208l-22.551178 22.551147z" fill-rule="evenodd"/><path fill="#999999" d="m471.771 712.09186l45.102356 0l0 45.102356l-45.102356 0z" fill-rule="evenodd"/><path fill="#b50a08" d="m230.02362 646.105l45.102356 0l0 45.102356l-45.102356 0z" fill-rule="evenodd"/><path fill="#674ea7" d="m411.33398 712.09186l45.102356 0l0 45.102356l-45.102356 0z" fill-rule="evenodd"/><path fill="#1155cc" d="m169.58792 646.105l45.10237 0l0 45.102356l-45.10237 0z" fill-rule="evenodd"/><path fill="#333333" d="m350.899 729.3194l22.551147 -17.22754l22.551117 17.22754l-8.613739 27.874695l-27.874756 0z" fill-rule="evenodd"/><path fill="#333333" d="m109.15096 729.3194l22.55114 -17.22754l22.551132 17.22754l-8.61377 27.874695l-27.874733 0z" fill-rule="evenodd"/><path fill="#999999" d="m468.99933 580.1181l45.102356 0l0 45.102356l-45.102356 0z" fill-rule="evenodd"/><path fill="#b50a08" d="m230.02362 712.09186l45.102356 0l0 45.102356l-45.102356 0z" fill-rule="evenodd"/><path fill="#674ea7" d="m408.56235 580.1181l45.102356 0l0 45.102356l-45.102356 0z" fill-rule="evenodd"/><path fill="#1155cc" d="m169.58792 712.09186l45.10237 0l0 45.102356l-45.10237 0z" fill-rule="evenodd"/><path fill="#333333" d="m348.1273 625.22046l22.551178 -45.102356l22.551178 45.102356z" fill-rule="evenodd"/><path fill="#000000" fill-opacity="0.0" d="m347.82285 448.5223l166.58267 0l0 49.039368l-166.58267 0z" fill-rule="evenodd"/><path fill="#333333" d="m358.68222 480.56232l0 -17.1875l5.90625 0q2.015625 0 3.0625 0.25q1.484375 0.34375 2.515625 1.234375q1.359375 1.140625 2.03125 2.9375q0.6875 1.78125 0.6875 4.078125q0 1.953125 -0.46875 3.46875q-0.453125 1.515625 -1.171875 2.515625q-0.703125 0.984375 -1.5625 1.546875q-0.84375 0.5625 -2.046875 0.859375q-1.203125 0.296875 -2.765625 0.296875l-6.1875 0zm2.265625 -2.03125l3.671875 0q1.703125 0 2.65625 -0.3125q0.96875 -0.3125 1.546875 -0.890625q0.8125 -0.8125 1.265625 -2.171875q0.453125 -1.375 0.453125 -3.3125q0 -2.703125 -0.890625 -4.140625q-0.890625 -1.453125 -2.15625 -1.9375q-0.90625 -0.359375 -2.9375 -0.359375l-3.609375 0l0 13.125zm22.910156 0.5q-1.171875 0.984375 -2.265625 1.40625q-1.078125 0.40625 -2.3125 0.40625q-2.046875 0 -3.15625 -1.0q-1.09375 -1.0 -1.09375 -2.5625q0 -0.921875 0.40625 -1.671875q0.421875 -0.75 1.09375 -1.203125q0.671875 -0.46875 1.515625 -0.703125q0.625 -0.15625 1.875 -0.3125q2.5625 -0.3125 3.765625 -0.734375q0.015625 -0.421875 0.015625 -0.546875q0 -1.28125 -0.609375 -1.8125q-0.796875 -0.71875 -2.390625 -0.71875q-1.5 0 -2.203125 0.53125q-0.703125 0.515625 -1.046875 1.84375l-2.0625 -0.28125q0.28125 -1.328125 0.921875 -2.140625q0.640625 -0.8125 1.859375 -1.25q1.21875 -0.453125 2.828125 -0.453125q1.59375 0 2.59375 0.375q1.0 0.375 1.46875 0.953125q0.46875 0.5625 0.65625 1.4375q0.09375 0.53125 0.09375 1.9375l0 2.8125q0 2.9375 0.140625 3.71875q0.140625 0.78125 0.53125 1.5l-2.203125 0q-0.328125 -0.65625 -0.421875 -1.53125zm-0.171875 -4.71875q-1.15625 0.46875 -3.453125 0.796875q-1.296875 0.1875 -1.84375 0.421875q-0.53125 0.234375 -0.828125 0.6875q-0.28125 0.453125 -0.28125 1.0q0 0.84375 0.625 1.40625q0.640625 0.5625 1.875 0.5625q1.21875 0 2.171875 -0.53125q0.953125 -0.53125 1.390625 -1.453125q0.34375 -0.71875 0.34375 -2.109375l0 -0.78125zm10.003906 4.359375l0.3125 1.859375q-0.890625 0.203125 -1.59375 0.203125q-1.15625 0 -1.796875 -0.359375q-0.625 -0.375 -0.890625 -0.96875q-0.25 -0.59375 -0.25 -2.484375l0 -7.171875l-1.546875 0l0 -1.640625l1.546875 0l0 -3.078125l2.09375 -1.265625l0 4.34375l2.125 0l0 1.640625l-2.125 0l0 7.28125q0 0.90625 0.109375 1.171875q0.125 0.25 0.375 0.40625q0.25 0.140625 0.71875 0.140625q0.34375 0 0.921875 -0.078125zm10.183594 0.359375q-1.171875 0.984375 -2.265625 1.40625q-1.078125 0.40625 -2.3125 0.40625q-2.046875 0 -3.15625 -1.0q-1.09375 -1.0 -1.09375 -2.5625q0 -0.921875 0.40625 -1.671875q0.421875 -0.75 1.09375 -1.203125q0.671875 -0.46875 1.515625 -0.703125q0.625 -0.15625 1.875 -0.3125q2.5625 -0.3125 3.765625 -0.734375q0.015625 -0.421875 0.015625 -0.546875q0 -1.28125 -0.609375 -1.8125q-0.796875 -0.71875 -2.390625 -0.71875q-1.5 0 -2.203125 0.53125q-0.703125 0.515625 -1.046875 1.84375l-2.0625 -0.28125q0.28125 -1.328125 0.921875 -2.140625q0.640625 -0.8125 1.859375 -1.25q1.21875 -0.453125 2.828125 -0.453125q1.59375 0 2.59375 0.375q1.0 0.375 1.46875 0.953125q0.46875 0.5625 0.65625 1.4375q0.09375 0.53125 0.09375 1.9375l0 2.8125q0 2.9375 0.140625 3.71875q0.140625 0.78125 0.53125 1.5l-2.203125 0q-0.328125 -0.65625 -0.421875 -1.53125zm-0.171875 -4.71875q-1.15625 0.46875 -3.453125 0.796875q-1.296875 0.1875 -1.84375 0.421875q-0.53125 0.234375 -0.828125 0.6875q-0.28125 0.453125 -0.28125 1.0q0 0.84375 0.625 1.40625q0.640625 0.5625 1.875 0.5625q1.21875 0 2.171875 -0.53125q0.953125 -0.53125 1.390625 -1.453125q0.34375 -0.71875 0.34375 -2.109375l0 -0.78125zm5.7851562 6.25l0 -17.1875l11.59375 0l0 2.03125l-9.3125 0l0 5.328125l8.0625 0l0 2.015625l-8.0625 0l0 7.8125l-2.28125 0zm14.253906 0l0 -12.453125l1.890625 0l0 1.890625q0.734375 -1.328125 1.34375 -1.75q0.625 -0.421875 1.359375 -0.421875q1.0625 0 2.171875 0.6875l-0.734375 1.953125q-0.765625 -0.453125 -1.546875 -0.453125q-0.6875 0 -1.25 0.421875q-0.546875 0.40625 -0.78125 1.140625q-0.34375 1.125 -0.34375 2.46875l0 6.515625l-2.109375 0zm16.132812 -1.53125q-1.171875 0.984375 -2.265625 1.40625q-1.078125 0.40625 -2.3125 0.40625q-2.046875 0 -3.15625 -1.0q-1.09375 -1.0 -1.09375 -2.5625q0 -0.921875 0.40625 -1.671875q0.421875 -0.75 1.09375 -1.203125q0.671875 -0.46875 1.515625 -0.703125q0.625 -0.15625 1.875 -0.3125q2.5625 -0.3125 3.765625 -0.734375q0.015625 -0.421875 0.015625 -0.546875q0 -1.28125 -0.609375 -1.8125q-0.796875 -0.71875 -2.390625 -0.71875q-1.5 0 -2.203125 0.53125q-0.703125 0.515625 -1.046875 1.84375l-2.0625 -0.28125q0.28125 -1.328125 0.921875 -2.140625q0.640625 -0.8125 1.859375 -1.25q1.21875 -0.453125 2.828125 -0.453125q1.59375 0 2.59375 0.375q1.0 0.375 1.46875 0.953125q0.46875 0.5625 0.65625 1.4375q0.09375 0.53125 0.09375 1.9375l0 2.8125q0 2.9375 0.140625 3.71875q0.140625 0.78125 0.53125 1.5l-2.203125 0q-0.328125 -0.65625 -0.421875 -1.53125zm-0.171875 -4.71875q-1.15625 0.46875 -3.453125 0.796875q-1.296875 0.1875 -1.84375 0.421875q-0.53125 0.234375 -0.828125 0.6875q-0.28125 0.453125 -0.28125 1.0q0 0.84375 0.625 1.40625q0.640625 0.5625 1.875 0.5625q1.21875 0 2.171875 -0.53125q0.953125 -0.53125 1.390625 -1.453125q0.34375 -0.71875 0.34375 -2.109375l0 -0.78125zm5.3945312 6.25l0 -12.453125l1.890625 0l0 1.75q0.59375 -0.90625 1.5625 -1.46875q0.96875 -0.5625 2.21875 -0.5625q1.375 0 2.25 0.578125q0.890625 0.578125 1.265625 1.609375q1.46875 -2.1875 3.84375 -2.1875q1.84375 0 2.84375 1.03125q1.0 1.03125 1.0 3.15625l0 8.546875l-2.109375 0l0 -7.84375q0 -1.265625 -0.203125 -1.8125q-0.203125 -0.5625 -0.75 -0.90625q-0.53125 -0.34375 -1.25 -0.34375q-1.3125 0 -2.1875 0.875q-0.859375 0.875 -0.859375 2.796875l0 7.234375l-2.109375 0l0 -8.09375q0 -1.40625 -0.515625 -2.109375q-0.515625 -0.703125 -1.6875 -0.703125q-0.890625 0 -1.65625 0.46875q-0.75 0.46875 -1.09375 1.375q-0.34375 0.90625 -0.34375 2.609375l0 6.453125l-2.109375 0zm28.523438 -4.015625l2.171875 0.28125q-0.515625 1.90625 -1.90625 2.96875q-1.390625 1.046875 -3.5625 1.046875q-2.734375 0 -4.34375 -1.671875q-1.59375 -1.6875 -1.59375 -4.734375q0 -3.140625 1.609375 -4.875q1.625 -1.734375 4.203125 -1.734375q2.5 0 4.078125 1.703125q1.59375 1.703125 1.59375 4.78125q0 0.1875 -0.015625 0.5625l-9.28125 0q0.109375 2.046875 1.15625 3.140625q1.046875 1.09375 2.609375 1.09375q1.15625 0 1.96875 -0.609375q0.828125 -0.609375 1.3125 -1.953125zm-6.9375 -3.40625l6.953125 0q-0.140625 -1.5625 -0.796875 -2.359375q-1.0 -1.21875 -2.609375 -1.21875q-1.453125 0 -2.453125 0.984375q-0.984375 0.96875 -1.09375 2.59375zm28.921875 5.390625l0 2.03125l-11.34375 0q-0.03125 -0.765625 0.234375 -1.46875q0.4375 -1.15625 1.390625 -2.28125q0.953125 -1.125 2.765625 -2.609375q2.796875 -2.296875 3.78125 -3.625q0.984375 -1.34375 0.984375 -2.546875q0 -1.25 -0.90625 -2.109375q-0.890625 -0.859375 -2.328125 -0.859375q-1.515625 0 -2.4375 0.921875q-0.90625 0.90625 -0.921875 2.515625l-2.171875 -0.21875q0.21875 -2.421875 1.671875 -3.6875q1.453125 -1.28125 3.90625 -1.28125q2.46875 0 3.90625 1.375q1.453125 1.359375 1.453125 3.390625q0 1.03125 -0.421875 2.03125q-0.421875 1.0 -1.40625 2.109375q-0.96875 1.09375 -3.25 3.015625q-1.890625 1.59375 -2.4375 2.15625q-0.53125 0.5625 -0.890625 1.140625l8.421875 0z" fill-rule="nonzero"/><path fill="#000000" fill-opacity="0.0" d="m108.84908 448.5223l166.58267 0l0 49.039368l-166.58267 0z" fill-rule="evenodd"/><path fill="#333333" d="m119.70846 480.56232l0 -17.1875l5.90625 0q2.015625 0 3.0624924 0.25q1.484375 0.34375 2.515625 1.234375q1.359375 1.140625 2.03125 2.9375q0.6875 1.78125 0.6875 4.078125q0 1.953125 -0.46875 3.46875q-0.453125 1.515625 -1.171875 2.515625q-0.703125 0.984375 -1.5625 1.546875q-0.84375 0.5625 -2.046875 0.859375q-1.2031174 0.296875 -2.7656174 0.296875l-6.1875 0zm2.265625 -2.03125l3.671875 0q1.703125 0 2.6562424 -0.3125q0.96875 -0.3125 1.546875 -0.890625q0.8125 -0.8125 1.265625 -2.171875q0.453125 -1.375 0.453125 -3.3125q0 -2.703125 -0.890625 -4.140625q-0.890625 -1.453125 -2.15625 -1.9375q-0.9062424 -0.359375 -2.9374924 -0.359375l-3.609375 0l0 13.125zm22.910149 0.5q-1.171875 0.984375 -2.265625 1.40625q-1.078125 0.40625 -2.3125 0.40625q-2.046875 0 -3.15625 -1.0q-1.09375 -1.0 -1.09375 -2.5625q0 -0.921875 0.40625 -1.671875q0.421875 -0.75 1.09375 -1.203125q0.671875 -0.46875 1.515625 -0.703125q0.625 -0.15625 1.875 -0.3125q2.5625 -0.3125 3.765625 -0.734375q0.015625 -0.421875 0.015625 -0.546875q0 -1.28125 -0.609375 -1.8125q-0.796875 -0.71875 -2.390625 -0.71875q-1.5 0 -2.203125 0.53125q-0.703125 0.515625 -1.046875 1.84375l-2.0625 -0.28125q0.28125 -1.328125 0.921875 -2.140625q0.640625 -0.8125 1.859375 -1.25q1.21875 -0.453125 2.828125 -0.453125q1.59375 0 2.59375 0.375q1.0 0.375 1.46875 0.953125q0.46875 0.5625 0.65625 1.4375q0.09375 0.53125 0.09375 1.9375l0 2.8125q0 2.9375 0.140625 3.71875q0.140625 0.78125 0.53125 1.5l-2.203125 0q-0.328125 -0.65625 -0.421875 -1.53125zm-0.171875 -4.71875q-1.15625 0.46875 -3.453125 0.796875q-1.296875 0.1875 -1.84375 0.421875q-0.53125 0.234375 -0.828125 0.6875q-0.28125 0.453125 -0.28125 1.0q0 0.84375 0.625 1.40625q0.640625 0.5625 1.875 0.5625q1.21875 0 2.171875 -0.53125q0.953125 -0.53125 1.390625 -1.453125q0.34375 -0.71875 0.34375 -2.109375l0 -0.78125zm10.003906 4.359375l0.3125 1.859375q-0.890625 0.203125 -1.59375 0.203125q-1.15625 0 -1.796875 -0.359375q-0.625 -0.375 -0.890625 -0.96875q-0.25 -0.59375 -0.25 -2.484375l0 -7.171875l-1.546875 0l0 -1.640625l1.546875 0l0 -3.078125l2.09375 -1.265625l0 4.34375l2.125 0l0 1.640625l-2.125 0l0 7.28125q0 0.90625 0.109375 1.171875q0.125 0.25 0.375 0.40625q0.25 0.140625 0.71875 0.140625q0.34375 0 0.921875 -0.078125zm10.183594 0.359375q-1.171875 0.984375 -2.265625 1.40625q-1.078125 0.40625 -2.3125 0.40625q-2.046875 0 -3.15625 -1.0q-1.09375 -1.0 -1.09375 -2.5625q0 -0.921875 0.40625 -1.671875q0.421875 -0.75 1.09375 -1.203125q0.671875 -0.46875 1.515625 -0.703125q0.625 -0.15625 1.875 -0.3125q2.5625 -0.3125 3.765625 -0.734375q0.015625 -0.421875 0.015625 -0.546875q0 -1.28125 -0.609375 -1.8125q-0.796875 -0.71875 -2.390625 -0.71875q-1.5 0 -2.203125 0.53125q-0.703125 0.515625 -1.046875 1.84375l-2.0625 -0.28125q0.28125 -1.328125 0.921875 -2.140625q0.640625 -0.8125 1.859375 -1.25q1.21875 -0.453125 2.828125 -0.453125q1.59375 0 2.59375 0.375q1.0 0.375 1.46875 0.953125q0.46875 0.5625 0.65625 1.4375q0.09375 0.53125 0.09375 1.9375l0 2.8125q0 2.9375 0.140625 3.71875q0.140625 0.78125 0.53125 1.5l-2.203125 0q-0.328125 -0.65625 -0.421875 -1.53125zm-0.171875 -4.71875q-1.15625 0.46875 -3.453125 0.796875q-1.296875 0.1875 -1.84375 0.421875q-0.53125 0.234375 -0.828125 0.6875q-0.28125 0.453125 -0.28125 1.0q0 0.84375 0.625 1.40625q0.640625 0.5625 1.875 0.5625q1.21875 0 2.171875 -0.53125q0.953125 -0.53125 1.390625 -1.453125q0.34375 -0.71875 0.34375 -2.109375l0 -0.78125zm5.7851562 6.25l0 -17.1875l11.59375 0l0 2.03125l-9.3125 0l0 5.328125l8.0625 0l0 2.015625l-8.0625 0l0 7.8125l-2.28125 0zm14.253906 0l0 -12.453125l1.890625 0l0 1.890625q0.734375 -1.328125 1.34375 -1.75q0.625 -0.421875 1.359375 -0.421875q1.0625 0 2.171875 0.6875l-0.734375 1.953125q-0.765625 -0.453125 -1.546875 -0.453125q-0.6875 0 -1.25 0.421875q-0.546875 0.40625 -0.78125 1.140625q-0.34375 1.125 -0.34375 2.46875l0 6.515625l-2.109375 0zm16.132812 -1.53125q-1.171875 0.984375 -2.265625 1.40625q-1.078125 0.40625 -2.3125 0.40625q-2.046875 0 -3.15625 -1.0q-1.09375 -1.0 -1.09375 -2.5625q0 -0.921875 0.40625 -1.671875q0.421875 -0.75 1.09375 -1.203125q0.671875 -0.46875 1.515625 -0.703125q0.625 -0.15625 1.875 -0.3125q2.5625 -0.3125 3.765625 -0.734375q0.015625 -0.421875 0.015625 -0.546875q0 -1.28125 -0.609375 -1.8125q-0.796875 -0.71875 -2.390625 -0.71875q-1.5 0 -2.203125 0.53125q-0.703125 0.515625 -1.046875 1.84375l-2.0625 -0.28125q0.28125 -1.328125 0.921875 -2.140625q0.640625 -0.8125 1.859375 -1.25q1.21875 -0.453125 2.828125 -0.453125q1.59375 0 2.59375 0.375q1.0 0.375 1.46875 0.953125q0.46875 0.5625 0.65625 1.4375q0.09375 0.53125 0.09375 1.9375l0 2.8125q0 2.9375 0.140625 3.71875q0.140625 0.78125 0.53125 1.5l-2.203125 0q-0.328125 -0.65625 -0.421875 -1.53125zm-0.171875 -4.71875q-1.15625 0.46875 -3.453125 0.796875q-1.296875 0.1875 -1.84375 0.421875q-0.53125 0.234375 -0.828125 0.6875q-0.28125 0.453125 -0.28125 1.0q0 0.84375 0.625 1.40625q0.640625 0.5625 1.875 0.5625q1.21875 0 2.171875 -0.53125q0.953125 -0.53125 1.390625 -1.453125q0.34375 -0.71875 0.34375 -2.109375l0 -0.78125zm5.3945312 6.25l0 -12.453125l1.890625 0l0 1.75q0.59375 -0.90625 1.5625 -1.46875q0.96875 -0.5625 2.21875 -0.5625q1.375 0 2.25 0.578125q0.890625 0.578125 1.265625 1.609375q1.46875 -2.1875 3.84375 -2.1875q1.84375 0 2.84375 1.03125q1.0 1.03125 1.0 3.15625l0 8.546875l-2.109375 0l0 -7.84375q0 -1.265625 -0.203125 -1.8125q-0.203125 -0.5625 -0.75 -0.90625q-0.53125 -0.34375 -1.25 -0.34375q-1.3125 0 -2.1875 0.875q-0.859375 0.875 -0.859375 2.796875l0 7.234375l-2.109375 0l0 -8.09375q0 -1.40625 -0.515625 -2.109375q-0.515625 -0.703125 -1.6875 -0.703125q-0.890625 0 -1.65625 0.46875q-0.75 0.46875 -1.09375 1.375q-0.34375 0.90625 -0.34375 2.609375l0 6.453125l-2.109375 0zm28.523438 -4.015625l2.171875 0.28125q-0.515625 1.90625 -1.90625 2.96875q-1.390625 1.046875 -3.5625 1.046875q-2.734375 0 -4.34375 -1.671875q-1.59375 -1.6875 -1.59375 -4.734375q0 -3.140625 1.609375 -4.875q1.625 -1.734375 4.203125 -1.734375q2.5 0 4.078125 1.703125q1.59375 1.703125 1.59375 4.78125q0 0.1875 -0.015625 0.5625l-9.28125 0q0.109375 2.046875 1.15625 3.140625q1.046875 1.09375 2.609375 1.09375q1.15625 0 1.96875 -0.609375q0.828125 -0.609375 1.3125 -1.953125zm-6.9375 -3.40625l6.953125 0q-0.140625 -1.5625 -0.796875 -2.359375q-1.0 -1.21875 -2.609375 -1.21875q-1.453125 0 -2.453125 0.984375q-0.984375 0.96875 -1.09375 2.59375zm25.78125 7.421875l-2.109375 0l0 -13.4375q-0.75 0.71875 -2.0 1.453125q-1.234375 0.71875 -2.21875 1.078125l0 -2.03125q1.78125 -0.828125 3.09375 -2.015625q1.328125 -1.1875 1.875 -2.296875l1.359375 0l0 17.25z" fill-rule="nonzero"/><path fill="#333333" d="m659.0932 540.0696l0 0c0 -12.454712 10.096497 -22.551208 22.551147 -22.551208l0 0c5.980957 0 11.716919 2.3759155 15.946106 6.6051025c4.229187 4.229126 6.6051025 9.965149 6.6051025 15.946106l0 0c0 12.454651 -10.096497 22.551147 -22.551208 22.551147l0 0c-12.454651 0 -22.551147 -10.096497 -22.551147 -22.551147zm11.275574 0l0 0c0 6.227295 5.048218 11.275574 11.275574 11.275574c6.227356 0 11.275574 -5.048279 11.275574 -11.275574c0 -6.227356 -5.048218 -11.275635 -11.275574 -11.275635l0 0c-6.227356 0 -11.275574 5.048279 -11.275574 11.275635z" fill-rule="evenodd"/><path fill="#b50a08" d="m779.9659 517.5184l45.102356 0l0 45.102356l-45.102356 0z" fill-rule="evenodd"/><path fill="#1155cc" d="m719.5302 517.5184l45.102356 0l0 45.102356l-45.102356 0z" fill-rule="evenodd"/><path fill="#333333" d="m659.0932 628.6076l22.551147 -45.102356l22.551208 45.102356z" fill-rule="evenodd"/><path fill="#999999" d="m900.83923 517.5184l45.102356 0l0 45.102356l-45.102356 0z" fill-rule="evenodd"/><path fill="#b50a08" d="m779.9659 583.50525l45.102356 0l0 45.102356l-45.102356 0z" fill-rule="evenodd"/><path fill="#674ea7" d="m840.4022 517.5184l45.102356 0l0 45.102356l-45.102356 0z" fill-rule="evenodd"/><path fill="#1155cc" d="m719.5302 583.50525l45.102356 0l0 45.102356l-45.102356 0z" fill-rule="evenodd"/><path fill="#999999" d="m903.6109 715.479l45.102356 0l0 45.102356l-45.102356 0z" fill-rule="evenodd"/><path fill="#674ea7" d="m843.1739 715.479l45.102356 0l0 45.102356l-45.102356 0z" fill-rule="evenodd"/><path fill="#333333" d="m659.0932 732.70654l22.551147 -17.22754l22.551147 17.22754l-8.61377 27.874695l-27.874756 0z" fill-rule="evenodd"/><path fill="#999999" d="m900.83923 583.50525l45.102356 0l0 45.102356l-45.102356 0z" fill-rule="evenodd"/><path fill="#b50a08" d="m779.9659 715.479l45.102356 0l0 45.102356l-45.102356 0z" fill-rule="evenodd"/><path fill="#674ea7" d="m840.4022 583.50525l45.102356 0l0 45.102356l-45.102356 0z" fill-rule="evenodd"/><path fill="#1155cc" d="m719.5302 715.479l45.102356 0l0 45.102356l-45.102356 0z" fill-rule="evenodd"/><path fill="#000000" fill-opacity="0.0" d="m689.02234 425.6168l226.99213 0l0 74.99213l-226.99213 0z" fill-rule="evenodd"/><path fill="#333333" d="m716.57306 451.62555l2.28125 0.578125q-0.71875 2.796875 -2.578125 4.28125q-1.859375 1.46875 -4.546875 1.46875q-2.765625 0 -4.515625 -1.125q-1.734375 -1.140625 -2.640625 -3.28125q-0.90625 -2.15625 -0.90625 -4.609375q0 -2.6875 1.015625 -4.6875q1.03125 -2.0 2.921875 -3.03125q1.890625 -1.03125 4.171875 -1.03125q2.578125 0 4.328125 1.3125q1.765625 1.3125 2.453125 3.6875l-2.234375 0.53125q-0.609375 -1.875 -1.75 -2.734375q-1.125 -0.859375 -2.84375 -0.859375q-1.984375 0 -3.3125 0.953125q-1.328125 0.953125 -1.875 2.546875q-0.53125 1.59375 -0.53125 3.296875q0 2.1875 0.625 3.828125q0.640625 1.640625 1.984375 2.453125q1.359375 0.796875 2.921875 0.796875q1.921875 0 3.234375 -1.09375q1.328125 -1.109375 1.796875 -3.28125zm4.0195312 -0.1875q0 -3.46875 1.921875 -5.125q1.609375 -1.390625 3.921875 -1.390625q2.5625 0 4.1875 1.6875q1.625 1.6875 1.625 4.640625q0 2.40625 -0.71875 3.78125q-0.71875 1.375 -2.09375 2.140625q-1.375 0.765625 -3.0 0.765625q-2.625 0 -4.234375 -1.671875q-1.609375 -1.6875 -1.609375 -4.828125zm2.171875 0q0 2.390625 1.03125 3.578125q1.046875 1.1875 2.640625 1.1875q1.5625 0 2.609375 -1.1875q1.046875 -1.203125 1.046875 -3.65625q0 -2.3125 -1.0625 -3.5q-1.046875 -1.1875 -2.59375 -1.1875q-1.59375 0 -2.640625 1.1875q-1.03125 1.1875 -1.03125 3.578125zm11.957031 6.21875l0 -12.453125l1.90625 0l0 1.78125q1.375 -2.0625 3.953125 -2.0625q1.125 0 2.0625 0.40625q0.953125 0.40625 1.421875 1.0625q0.46875 0.65625 0.65625 1.5625q0.125 0.578125 0.125 2.046875l0 7.65625l-2.109375 0l0 -7.578125q0 -1.28125 -0.25 -1.921875q-0.25 -0.640625 -0.875 -1.015625q-0.625 -0.390625 -1.46875 -0.390625q-1.34375 0 -2.328125 0.859375q-0.984375 0.859375 -0.984375 3.25l0 6.796875l-2.109375 0zm21.472656 -4.5625l2.078125 0.265625q-0.34375 2.15625 -1.75 3.375q-1.390625 1.203125 -3.4375 1.203125q-2.546875 0 -4.109375 -1.671875q-1.546875 -1.671875 -1.546875 -4.78125q0 -2.015625 0.671875 -3.53125q0.671875 -1.515625 2.03125 -2.265625q1.359375 -0.765625 2.96875 -0.765625q2.03125 0 3.3125 1.03125q1.296875 1.03125 1.65625 2.90625l-2.046875 0.328125q-0.296875 -1.265625 -1.046875 -1.890625q-0.734375 -0.640625 -1.796875 -0.640625q-1.59375 0 -2.59375 1.15625q-0.984375 1.140625 -0.984375 3.609375q0 2.5 0.953125 3.640625q0.96875 1.140625 2.515625 1.140625q1.234375 0 2.0625 -0.765625q0.84375 -0.765625 1.0625 -2.34375zm12.0 3.03125q-1.171875 0.984375 -2.265625 1.40625q-1.078125 0.40625 -2.3125 0.40625q-2.046875 0 -3.15625 -1.0q-1.09375 -1.0 -1.09375 -2.5625q0 -0.921875 0.40625 -1.671875q0.421875 -0.75 1.09375 -1.203125q0.671875 -0.46875 1.515625 -0.703125q0.625 -0.15625 1.875 -0.3125q2.5625 -0.3125 3.765625 -0.734375q0.015625 -0.421875 0.015625 -0.546875q0 -1.28125 -0.609375 -1.8125q-0.796875 -0.71875 -2.390625 -0.71875q-1.5 0 -2.203125 0.53125q-0.703125 0.515625 -1.046875 1.84375l-2.0625 -0.28125q0.28125 -1.328125 0.921875 -2.140625q0.640625 -0.8125 1.859375 -1.25q1.21875 -0.453125 2.828125 -0.453125q1.59375 0 2.59375 0.375q1.0 0.375 1.46875 0.953125q0.46875 0.5625 0.65625 1.4375q0.09375 0.53125 0.09375 1.9375l0 2.8125q0 2.9375 0.140625 3.71875q0.140625 0.78125 0.53125 1.5l-2.203125 0q-0.328125 -0.65625 -0.421875 -1.53125zm-0.171875 -4.71875q-1.15625 0.46875 -3.453125 0.796875q-1.296875 0.1875 -1.84375 0.421875q-0.53125 0.234375 -0.828125 0.6875q-0.28125 0.453125 -0.28125 1.0q0 0.84375 0.625 1.40625q0.640625 0.5625 1.875 0.5625q1.21875 0 2.171875 -0.53125q0.953125 -0.53125 1.390625 -1.453125q0.34375 -0.71875 0.34375 -2.109375l0 -0.78125zm10.003906 4.359375l0.3125 1.859375q-0.890625 0.203125 -1.59375 0.203125q-1.15625 0 -1.796875 -0.359375q-0.625 -0.375 -0.890625 -0.96875q-0.25 -0.59375 -0.25 -2.484375l0 -7.171875l-1.546875 0l0 -1.640625l1.546875 0l0 -3.078125l2.09375 -1.265625l0 4.34375l2.125 0l0 1.640625l-2.125 0l0 7.28125q0 0.90625 0.109375 1.171875q0.125 0.25 0.375 0.40625q0.25 0.140625 0.71875 0.140625q0.34375 0 0.921875 -0.078125zm10.589844 -2.125l2.171875 0.28125q-0.515625 1.90625 -1.90625 2.96875q-1.390625 1.046875 -3.5625 1.046875q-2.734375 0 -4.34375 -1.671875q-1.59375 -1.6875 -1.59375 -4.734375q0 -3.140625 1.609375 -4.875q1.625 -1.734375 4.203125 -1.734375q2.5 0 4.078125 1.703125q1.59375 1.703125 1.59375 4.78125q0 0.1875 -0.015625 0.5625l-9.28125 0q0.109375 2.046875 1.15625 3.140625q1.046875 1.09375 2.609375 1.09375q1.15625 0 1.96875 -0.609375q0.828125 -0.609375 1.3125 -1.953125zm-6.9375 -3.40625l6.953125 0q-0.140625 -1.5625 -0.796875 -2.359375q-1.0 -1.21875 -2.609375 -1.21875q-1.453125 0 -2.453125 0.984375q-0.984375 0.96875 -1.09375 2.59375zm11.753906 7.421875l0 -12.453125l1.90625 0l0 1.78125q1.375 -2.0625 3.953125 -2.0625q1.125 0 2.0625 0.40625q0.953125 0.40625 1.421875 1.0625q0.46875 0.65625 0.65625 1.5625q0.125 0.578125 0.125 2.046875l0 7.65625l-2.109375 0l0 -7.578125q0 -1.28125 -0.25 -1.921875q-0.25 -0.640625 -0.875 -1.015625q-0.625 -0.390625 -1.46875 -0.390625q-1.34375 0 -2.328125 0.859375q-0.984375 0.859375 -0.984375 3.25l0 6.796875l-2.109375 0zm21.472656 -1.53125q-1.171875 0.984375 -2.265625 1.40625q-1.078125 0.40625 -2.3125 0.40625q-2.046875 0 -3.15625 -1.0q-1.09375 -1.0 -1.09375 -2.5625q0 -0.921875 0.40625 -1.671875q0.421875 -0.75 1.09375 -1.203125q0.671875 -0.46875 1.515625 -0.703125q0.625 -0.15625 1.875 -0.3125q2.5625 -0.3125 3.765625 -0.734375q0.015625 -0.421875 0.015625 -0.546875q0 -1.28125 -0.609375 -1.8125q-0.796875 -0.71875 -2.390625 -0.71875q-1.5 0 -2.203125 0.53125q-0.703125 0.515625 -1.046875 1.84375l-2.0625 -0.28125q0.28125 -1.328125 0.921875 -2.140625q0.640625 -0.8125 1.859375 -1.25q1.21875 -0.453125 2.828125 -0.453125q1.59375 0 2.59375 0.375q1.0 0.375 1.46875 0.953125q0.46875 0.5625 0.65625 1.4375q0.09375 0.53125 0.09375 1.9375l0 2.8125q0 2.9375 0.140625 3.71875q0.140625 0.78125 0.53125 1.5l-2.203125 0q-0.328125 -0.65625 -0.421875 -1.53125zm-0.171875 -4.71875q-1.15625 0.46875 -3.453125 0.796875q-1.296875 0.1875 -1.84375 0.421875q-0.53125 0.234375 -0.828125 0.6875q-0.28125 0.453125 -0.28125 1.0q0 0.84375 0.625 1.40625q0.640625 0.5625 1.875 0.5625q1.21875 0 2.171875 -0.53125q0.953125 -0.53125 1.390625 -1.453125q0.34375 -0.71875 0.34375 -2.109375l0 -0.78125zm10.003906 4.359375l0.3125 1.859375q-0.890625 0.203125 -1.59375 0.203125q-1.15625 0 -1.796875 -0.359375q-0.625 -0.375 -0.890625 -0.96875q-0.25 -0.59375 -0.25 -2.484375l0 -7.171875l-1.546875 0l0 -1.640625l1.546875 0l0 -3.078125l2.09375 -1.265625l0 4.34375l2.125 0l0 1.640625l-2.125 0l0 7.28125q0 0.90625 0.109375 1.171875q0.125 0.25 0.375 0.40625q0.25 0.140625 0.71875 0.140625q0.34375 0 0.921875 -0.078125zm10.589844 -2.125l2.171875 0.28125q-0.515625 1.90625 -1.90625 2.96875q-1.390625 1.046875 -3.5625 1.046875q-2.734375 0 -4.34375 -1.671875q-1.59375 -1.6875 -1.59375 -4.734375q0 -3.140625 1.609375 -4.875q1.625 -1.734375 4.203125 -1.734375q2.5 0 4.078125 1.703125q1.59375 1.703125 1.59375 4.78125q0 0.1875 -0.015625 0.5625l-9.28125 0q0.109375 2.046875 1.15625 3.140625q1.046875 1.09375 2.609375 1.09375q1.15625 0 1.96875 -0.609375q0.828125 -0.609375 1.3125 -1.953125zm-6.9375 -3.40625l6.953125 0q-0.140625 -1.5625 -0.796875 -2.359375q-1.0 -1.21875 -2.609375 -1.21875q-1.453125 0 -2.453125 0.984375q-0.984375 0.96875 -1.09375 2.59375zm18.40625 7.421875l0 -12.453125l1.890625 0l0 1.890625q0.734375 -1.328125 1.34375 -1.75q0.625 -0.421875 1.359375 -0.421875q1.0625 0 2.171875 0.6875l-0.734375 1.953125q-0.765625 -0.453125 -1.546875 -0.453125q-0.6875 0 -1.25 0.421875q-0.546875 0.40625 -0.78125 1.140625q-0.34375 1.125 -0.34375 2.46875l0 6.515625l-2.109375 0zm7.2265625 -6.21875q0 -3.46875 1.921875 -5.125q1.609375 -1.390625 3.921875 -1.390625q2.5625 0 4.1875 1.6875q1.625 1.6875 1.625 4.640625q0 2.40625 -0.71875 3.78125q-0.71875 1.375 -2.09375 2.140625q-1.375 0.765625 -3.0 0.765625q-2.625 0 -4.234375 -1.671875q-1.609375 -1.6875 -1.609375 -4.828125zm2.171875 0q0 2.390625 1.03125 3.578125q1.046875 1.1875 2.640625 1.1875q1.5625 0 2.609375 -1.1875q1.046875 -1.203125 1.046875 -3.65625q0 -2.3125 -1.0625 -3.5q-1.046875 -1.1875 -2.59375 -1.1875q-1.59375 0 -2.640625 1.1875q-1.03125 1.1875 -1.03125 3.578125zm14.253906 6.21875l-3.796875 -12.453125l2.171875 0l1.984375 7.1875l0.734375 2.671875q0.046875 -0.203125 0.640625 -2.5625l1.984375 -7.296875l2.171875 0l1.859375 7.21875l0.625 2.390625l0.71875 -2.40625l2.125 -7.203125l2.046875 0l-3.890625 12.453125l-2.1875 0l-1.984375 -7.453125l-0.46875 -2.125l-2.53125 9.578125l-2.203125 0zm14.191406 -3.71875l2.09375 -0.328125q0.171875 1.25 0.96875 1.921875q0.8125 0.671875 2.25 0.671875q1.453125 0 2.15625 -0.59375q0.703125 -0.59375 0.703125 -1.390625q0 -0.71875 -0.625 -1.125q-0.421875 -0.28125 -2.15625 -0.71875q-2.3125 -0.578125 -3.21875 -1.0q-0.890625 -0.4375 -1.359375 -1.1875q-0.453125 -0.765625 -0.453125 -1.671875q0 -0.828125 0.375 -1.53125q0.390625 -0.71875 1.046875 -1.1875q0.484375 -0.359375 1.328125 -0.609375q0.859375 -0.265625 1.828125 -0.265625q1.46875 0 2.578125 0.421875q1.109375 0.421875 1.625 1.15625q0.53125 0.71875 0.734375 1.921875l-2.0625 0.28125q-0.140625 -0.96875 -0.8125 -1.5q-0.671875 -0.546875 -1.90625 -0.546875q-1.453125 0 -2.078125 0.484375q-0.625 0.484375 -0.625 1.125q0 0.40625 0.265625 0.734375q0.25 0.34375 0.8125 0.5625q0.3125 0.125 1.859375 0.546875q2.234375 0.59375 3.109375 0.984375q0.890625 0.375 1.390625 1.109375q0.515625 0.71875 0.515625 1.796875q0 1.046875 -0.625 1.984375q-0.609375 0.9375 -1.765625 1.453125q-1.15625 0.5 -2.625 0.5q-2.421875 0 -3.703125 -1.0q-1.265625 -1.015625 -1.625 -3.0zm13.4375 -6.328125l0 -2.40625l2.40625 0l0 2.40625l-2.40625 0zm0 10.046875l0 -2.40625l2.40625 0l0 2.40625l-2.40625 0z" fill-rule="nonzero"/><path fill="#333333" d="m706.26056 486.6568l0 -17.1875l3.421875 0l4.0625 12.171875q0.5625 1.703125 0.828125 2.546875q0.296875 -0.9375 0.90625 -2.765625l4.125 -11.953125l3.046875 0l0 17.1875l-2.1875 0l0 -14.375l-4.984375 14.375l-2.0625 0l-4.96875 -14.625l0 14.625l-2.1875 0zm28.320312 -4.015625l2.171875 0.28125q-0.515625 1.90625 -1.90625 2.96875q-1.390625 1.046875 -3.5625 1.046875q-2.734375 0 -4.34375 -1.671875q-1.59375 -1.6875 -1.59375 -4.734375q0 -3.140625 1.609375 -4.875q1.625 -1.734375 4.203125 -1.734375q2.5 0 4.078125 1.703125q1.59375 1.703125 1.59375 4.78125q0 0.1875 -0.015625 0.5625l-9.28125 0q0.109375 2.046875 1.15625 3.140625q1.046875 1.09375 2.609375 1.09375q1.15625 0 1.96875 -0.609375q0.828125 -0.609375 1.3125 -1.953125zm-6.9375 -3.40625l6.953125 0q-0.140625 -1.5625 -0.796875 -2.359375q-1.0 -1.21875 -2.609375 -1.21875q-1.453125 0 -2.453125 0.984375q-0.984375 0.96875 -1.09375 2.59375zm11.738281 7.421875l0 -12.453125l1.890625 0l0 1.890625q0.734375 -1.328125 1.34375 -1.75q0.625 -0.421875 1.359375 -0.421875q1.0625 0 2.171875 0.6875l-0.734375 1.953125q-0.765625 -0.453125 -1.546875 -0.453125q-0.6875 0 -1.25 0.421875q-0.546875 0.40625 -0.78125 1.140625q-0.34375 1.125 -0.34375 2.46875l0 6.515625l-2.109375 0zm7.6328125 1.03125l2.046875 0.3125q0.125 0.9375 0.71875 1.375q0.78125 0.59375 2.140625 0.59375q1.46875 0 2.265625 -0.59375q0.796875 -0.578125 1.078125 -1.640625q0.15625 -0.640625 0.140625 -2.703125q-1.375 1.625 -3.4375 1.625q-2.5625 0 -3.96875 -1.84375q-1.40625 -1.859375 -1.40625 -4.453125q0 -1.78125 0.640625 -3.28125q0.640625 -1.515625 1.859375 -2.328125q1.234375 -0.828125 2.890625 -0.828125q2.203125 0 3.625 1.78125l0 -1.5l1.953125 0l0 10.765625q0 2.90625 -0.59375 4.109375q-0.59375 1.21875 -1.875 1.921875q-1.28125 0.703125 -3.15625 0.703125q-2.234375 0 -3.609375 -1.0q-1.359375 -1.0 -1.3125 -3.015625zm1.734375 -7.484375q0 2.453125 0.96875 3.578125q0.984375 1.125 2.453125 1.125q1.453125 0 2.4375 -1.109375q0.984375 -1.125 0.984375 -3.515625q0 -2.28125 -1.015625 -3.4375q-1.015625 -1.171875 -2.453125 -1.171875q-1.40625 0 -2.390625 1.140625q-0.984375 1.140625 -0.984375 3.390625zm20.519531 2.4375l2.171875 0.28125q-0.515625 1.90625 -1.90625 2.96875q-1.390625 1.046875 -3.5625 1.046875q-2.734375 0 -4.34375 -1.671875q-1.59375 -1.6875 -1.59375 -4.734375q0 -3.140625 1.609375 -4.875q1.625 -1.734375 4.203125 -1.734375q2.5 0 4.078125 1.703125q1.59375 1.703125 1.59375 4.78125q0 0.1875 -0.015625 0.5625l-9.28125 0q0.109375 2.046875 1.15625 3.140625q1.046875 1.09375 2.609375 1.09375q1.15625 0 1.96875 -0.609375q0.828125 -0.609375 1.3125 -1.953125zm-6.9375 -3.40625l6.953125 0q-0.140625 -1.5625 -0.796875 -2.359375q-1.0 -1.21875 -2.609375 -1.21875q-1.453125 0 -2.453125 0.984375q-0.984375 0.96875 -1.09375 2.59375zm22.453125 12.46875q-1.734375 -2.203125 -2.953125 -5.15625q-1.203125 -2.953125 -1.203125 -6.109375q0 -2.796875 0.90625 -5.34375q1.046875 -2.96875 3.25 -5.90625l1.515625 0q-1.421875 2.4375 -1.875 3.46875q-0.71875 1.625 -1.125 3.375q-0.5 2.203125 -0.5 4.40625q0 5.640625 3.5 11.265625l-1.515625 0zm4.6171875 -5.046875l0 -17.1875l2.28125 0l0 17.1875l-2.28125 0zm6.0117188 0l0 -12.453125l1.90625 0l0 1.78125q1.375 -2.0625 3.953125 -2.0625q1.125 0 2.0625 0.40625q0.953125 0.40625 1.421875 1.0625q0.46875 0.65625 0.65625 1.5625q0.125 0.578125 0.125 2.046875l0 7.65625l-2.109375 0l0 -7.578125q0 -1.28125 -0.25 -1.921875q-0.25 -0.640625 -0.875 -1.015625q-0.625 -0.390625 -1.46875 -0.390625q-1.34375 0 -2.328125 0.859375q-0.984375 0.859375 -0.984375 3.25l0 6.796875l-2.109375 0zm13.347656 0l0 -12.453125l1.90625 0l0 1.78125q1.375 -2.0625 3.953125 -2.0625q1.125 0 2.0625 0.40625q0.953125 0.40625 1.421875 1.0625q0.46875 0.65625 0.65625 1.5625q0.125 0.578125 0.125 2.046875l0 7.65625l-2.109375 0l0 -7.578125q0 -1.28125 -0.25 -1.921875q-0.25 -0.640625 -0.875 -1.015625q-0.625 -0.390625 -1.46875 -0.390625q-1.34375 0 -2.328125 0.859375q-0.984375 0.859375 -0.984375 3.25l0 6.796875l-2.109375 0zm21.878906 -4.015625l2.171875 0.28125q-0.515625 1.90625 -1.90625 2.96875q-1.390625 1.046875 -3.5625 1.046875q-2.734375 0 -4.34375 -1.671875q-1.59375 -1.6875 -1.59375 -4.734375q0 -3.140625 1.609375 -4.875q1.625 -1.734375 4.203125 -1.734375q2.5 0 4.078125 1.703125q1.59375 1.703125 1.59375 4.78125q0 0.1875 -0.015625 0.5625l-9.28125 0q0.109375 2.046875 1.15625 3.140625q1.046875 1.09375 2.609375 1.09375q1.15625 0 1.96875 -0.609375q0.828125 -0.609375 1.3125 -1.953125zm-6.9375 -3.40625l6.953125 0q-0.140625 -1.5625 -0.796875 -2.359375q-1.0 -1.21875 -2.609375 -1.21875q-1.453125 0 -2.453125 0.984375q-0.984375 0.96875 -1.09375 2.59375zm11.738281 7.421875l0 -12.453125l1.890625 0l0 1.890625q0.734375 -1.328125 1.34375 -1.75q0.625 -0.421875 1.359375 -0.421875q1.0625 0 2.171875 0.6875l-0.734375 1.953125q-0.765625 -0.453125 -1.546875 -0.453125q-0.6875 0 -1.25 0.421875q-0.546875 0.40625 -0.78125 1.140625q-0.34375 1.125 -0.34375 2.46875l0 6.515625l-2.109375 0zm13.785156 -4.875l2.0625 -0.28125q0.078125 1.96875 0.734375 2.703125q0.65625 0.71875 1.8125 0.71875q0.859375 0 1.46875 -0.390625q0.625 -0.390625 0.859375 -1.0625q0.234375 -0.6875 0.234375 -2.15625l0 -11.84375l2.28125 0l0 11.71875q0 2.15625 -0.53125 3.34375q-0.515625 1.171875 -1.65625 1.796875q-1.125 0.625 -2.640625 0.625q-2.265625 0 -3.46875 -1.296875q-1.203125 -1.3125 -1.15625 -3.875zm12.109375 -1.34375q0 -3.46875 1.921875 -5.125q1.609375 -1.390625 3.921875 -1.390625q2.5625 0 4.1875 1.6875q1.625 1.6875 1.625 4.640625q0 2.40625 -0.71875 3.78125q-0.71875 1.375 -2.09375 2.140625q-1.375 0.765625 -3.0 0.765625q-2.625 0 -4.234375 -1.671875q-1.609375 -1.6875 -1.609375 -4.828125zm2.171875 0q0 2.390625 1.03125 3.578125q1.046875 1.1875 2.640625 1.1875q1.5625 0 2.609375 -1.1875q1.046875 -1.203125 1.046875 -3.65625q0 -2.3125 -1.0625 -3.5q-1.046875 -1.1875 -2.59375 -1.1875q-1.59375 0 -2.640625 1.1875q-1.03125 1.1875 -1.03125 3.578125zm11.972656 -8.53125l0 -2.4375l2.109375 0l0 2.4375l-2.109375 0zm0 14.75l0 -12.453125l2.109375 0l0 12.453125l-2.109375 0zm5.3164062 0l0 -12.453125l1.90625 0l0 1.78125q1.375 -2.0625 3.953125 -2.0625q1.125 0 2.0625 0.40625q0.953125 0.40625 1.421875 1.0625q0.46875 0.65625 0.65625 1.5625q0.125 0.578125 0.125 2.046875l0 7.65625l-2.109375 0l0 -7.578125q0 -1.28125 -0.25 -1.921875q-0.25 -0.640625 -0.875 -1.015625q-0.625 -0.390625 -1.46875 -0.390625q-1.34375 0 -2.328125 0.859375q-0.984375 0.859375 -0.984375 3.25l0 6.796875l-2.109375 0zm14.738281 5.046875l-1.515625 0q3.5 -5.625 3.5 -11.265625q0 -2.203125 -0.5 -4.359375q-0.390625 -1.765625 -1.109375 -3.375q-0.453125 -1.0625 -1.890625 -3.515625l1.515625 0q2.203125 2.9375 3.25 5.90625q0.90625 2.546875 0.90625 5.34375q0 3.15625 -1.21875 6.109375q-1.203125 2.953125 -2.9375 5.15625z" fill-rule="nonzero"/><path fill="#000000" fill-opacity="0.0" d="m18.822834 263.86615l0 -149.13387l74.99213 0l0 149.13387z" fill-rule="evenodd"/><path fill="#333333" d="m58.542835 229.90077l-22.90625 0l0 -3.03125l22.90625 0l0 3.03125zm0 -8.015625l-16.59375 0l0 -2.53125l2.359375 0q-2.734375 -1.828125 -2.734375 -5.28125q0 -1.5 0.546875 -2.75q0.53125 -1.265625 1.40625 -1.890625q0.875 -0.625 2.078125 -0.875q0.78125 -0.15625 2.734375 -0.15625l10.203125 0l0 2.8125l-10.09375 0q-1.71875 0 -2.5625 0.328125q-0.859375 0.328125 -1.359375 1.171875q-0.515625 0.828125 -0.515625 1.953125q0 1.796875 1.140625 3.109375q1.140625 1.296875 4.328125 1.296875l9.0625 0l0 2.8125zm6.359379 -17.796875l-22.953129 0l0 -2.5625l2.15625 0q-1.265625 -0.90625 -1.890625 -2.046875q-0.640625 -1.140625 -0.640625 -2.765625q0 -2.125 1.09375 -3.75q1.09375 -1.625 3.09375 -2.453125q1.984375 -0.828125 4.359375 -0.828125q2.546875 0 4.59375 0.921875q2.03125 0.90625 3.125 2.65625q1.078125 1.734375 1.078125 3.65625q0 1.40625 -0.59375 2.53125q-0.59375 1.109375 -1.5 1.828125l8.078129 0l0 2.8125zm-14.562504 -2.546875q3.203125 0 4.734375 -1.296875q1.53125 -1.296875 1.53125 -3.140625q0 -1.875 -1.578125 -3.203125q-1.59375 -1.34375 -4.921875 -1.34375q-3.171875 0 -4.75 1.3125q-1.578125 1.296875 -1.578125 3.109375q0 1.796875 1.6875 3.1875q1.671875 1.375 4.875 1.375zm8.203125 -26.125l-2.4375 0q2.8125 1.9375 2.8125 5.265625q0 1.46875 -0.5625 2.75q-0.5625 1.265625 -1.40625 1.890625q-0.859375 0.609375 -2.09375 0.859375q-0.828125 0.171875 -2.625 0.171875l-10.28125 0l0 -2.8125l9.203125 0q2.203125 0 2.96875 -0.171875q1.109375 -0.265625 1.75 -1.125q0.625 -0.859375 0.625 -2.125q0 -1.265625 -0.640625 -2.375q-0.65625 -1.109375 -1.765625 -1.5625q-1.125 -0.46875 -3.25 -0.46875l-8.890625 0l0 -2.8125l16.59375 0l0 2.515625zm-2.515625 -13.0625l2.484375 -0.40625q0.25 1.1875 0.25 2.125q0 1.53125 -0.484375 2.375q-0.484375 0.84375 -1.265625 1.1875q-0.796875 0.34375 -3.328125 0.34375l-9.546875 0l0 2.0625l-2.1875 0l0 -2.0625l-4.109375 0l-1.6875 -2.796875l5.796875 0l0 -2.828125l2.1875 0l0 2.828125l9.703125 0q1.203125 0 1.546875 -0.140625q0.34375 -0.15625 0.546875 -0.484375q0.203125 -0.34375 0.203125 -0.96875q0 -0.46875 -0.109375 -1.234375zm-2.4375 -1.625l-0.4375 -2.78125q1.671875 -0.234375 2.5625 -1.296875q0.890625 -1.078125 0.890625 -3.0q0 -1.9375 -0.78125 -2.875q-0.796875 -0.9375 -1.859375 -0.9375q-0.953125 0 -1.5 0.828125q-0.375 0.578125 -0.953125 2.875q-0.78125 3.09375 -1.34375 4.296875q-0.578125 1.1875 -1.578125 1.8125q-1.015625 0.609375 -2.234375 0.609375q-1.109375 0 -2.046875 -0.5q-0.953125 -0.515625 -1.578125 -1.390625q-0.484375 -0.65625 -0.8125 -1.78125q-0.34375 -1.140625 -0.34375 -2.4375q0 -1.953125 0.5625 -3.421875q0.5625 -1.484375 1.53125 -2.1875q0.953125 -0.703125 2.5625 -0.96875l0.375 2.75q-1.28125 0.1875 -2.0 1.09375q-0.71875 0.890625 -0.71875 2.53125q0 1.9375 0.640625 2.765625q0.640625 0.828125 1.5 0.828125q0.546875 0 0.984375 -0.34375q0.453125 -0.34375 0.75 -1.078125q0.15625 -0.421875 0.71875 -2.484375q0.796875 -2.984375 1.3125 -4.15625q0.5 -1.1875 1.46875 -1.859375q0.96875 -0.671875 2.40625 -0.671875q1.40625 0 2.65625 0.828125q1.234375 0.8125 1.921875 2.359375q0.671875 1.546875 0.671875 3.5q0 3.234375 -1.34375 4.9375q-1.34375 1.6875 -3.984375 2.15625z" fill-rule="nonzero"/><path fill="#000000" fill-opacity="0.0" d="m18.822834 776.0341l0 -327.40158l74.99213 0l0 327.40158z" fill-rule="evenodd"/><path fill="#333333" d="m58.542835 714.6536l-22.90625 -8.796875l0 -3.265625l22.90625 -9.375l0 3.453125l-6.9375 2.671875l0 9.578125l6.9375 2.515625l0 3.21875zm-9.40625 -6.609375l0 -7.765625l-6.34375 2.390625q-2.890625 1.09375 -4.75 1.625q2.203125 0.4375 4.375 1.234375l6.71875 2.515625zm9.40625 -16.828125l-22.90625 0l0 -2.8125l22.90625 0l0 2.8125zm-19.671875 -7.1875l-3.234375 0l0 -2.8125l3.234375 0l0 2.8125zm19.671875 0l-16.59375 0l0 -2.8125l16.59375 0l0 2.8125zm1.375 -6.578125l0.40625 -2.734375q1.265625 -0.171875 1.84375 -0.953125q0.78125 -1.046875 0.78125 -2.859375q0 -1.953125 -0.78125 -3.015625q-0.78125 -1.0625 -2.1875 -1.4375q-0.859375 -0.21875 -3.609375 -0.203125q2.171875 1.84375 2.171875 4.59375q0 3.421875 -2.46875 5.296875q-2.46875 1.875 -5.921875 1.875q-2.375 0 -4.375 -0.859375q-2.015625 -0.859375 -3.109375 -2.484375q-1.09375 -1.640625 -1.09375 -3.84375q0 -2.9375 2.375 -4.84375l-2.0 0l0 -2.59375l14.34375 0q3.875 0 5.484375 0.796875q1.625 0.78125 2.5625038 2.5q0.9375 1.703125 0.9375 4.203125q0 2.96875 -1.3437538 4.796875q-1.328125 1.828125 -4.015625 1.765625zm-9.96875 -2.328125q3.265625 0 4.765625 -1.296875q1.5 -1.296875 1.5 -3.25q0 -1.9375 -1.484375 -3.25q-1.5 -1.3125 -4.6875 -1.3125q-3.046875 0 -4.59375 1.359375q-1.546875 1.34375 -1.546875 3.25q0 1.875 1.53125 3.1875q1.515625 1.3125 4.515625 1.3125zm8.59375 -15.984375l-16.59375 0l0 -2.53125l2.359375 0q-2.734375 -1.828125 -2.734375 -5.28125q0 -1.5 0.546875 -2.75q0.53125 -1.265625 1.40625 -1.890625q0.875 -0.625 2.078125 -0.875q0.78125 -0.15625 2.734375 -0.15625l10.203125 0l0 2.8125l-10.09375 0q-1.71875 0 -2.5625 0.328125q-0.859375 0.328125 -1.359375 1.171875q-0.515625 0.828125 -0.515625 1.953125q0 1.796875 1.140625 3.109375q1.140625 1.296875 4.328125 1.296875l9.0625 0l0 2.8125zm-8.296875 -25.640625q-4.609375 0 -6.828125 -2.5625q-1.84375 -2.140625 -1.84375 -5.21875q0 -3.421875 2.25 -5.59375q2.234375 -2.171875 6.1875 -2.171875q3.203125 0 5.046875 0.96875q1.828125 0.953125 2.84375 2.796875q1.015625 1.828125 1.015625 4.0q0 3.484375 -2.234375 5.640625q-2.234375 2.140625 -6.4375 2.140625zm0 -2.890625q3.1875 0 4.78125 -1.390625q1.578125 -1.390625 1.578125 -3.5q0 -2.09375 -1.59375 -3.484375q-1.59375 -1.390625 -4.859375 -1.390625q-3.078125 0 -4.65625 1.40625q-1.59375 1.390625 -1.59375 3.46875q0 2.109375 1.578125 3.5q1.578125 1.390625 4.765625 1.390625zm8.296875 -15.953125l-16.59375 0l0 -2.53125l2.359375 0q-2.734375 -1.828125 -2.734375 -5.28125q0 -1.5 0.546875 -2.75q0.53125 -1.265625 1.40625 -1.890625q0.875 -0.625 2.078125 -0.875q0.78125 -0.15625 2.734375 -0.15625l10.203125 0l0 2.8125l-10.09375 0q-1.71875 0 -2.5625 0.328125q-0.859375 0.328125 -1.359375 1.171875q-0.515625 0.828125 -0.515625 1.953125q0 1.796875 1.140625 3.109375q1.140625 1.296875 4.328125 1.296875l9.0625 0l0 2.8125zm0 -27.09375l-22.90625 0l0 -10.15625q0 -3.0625 0.625 -4.65625q0.609375 -1.59375 2.171875 -2.546875q1.5625 -0.953125 3.453125 -0.953125q2.4375 0 4.109375 1.578125q1.671875 1.578125 2.125 4.875q0.578125 -1.203125 1.140625 -1.828125q1.21875 -1.328125 3.046875 -2.515625l6.234375 -3.984375l0 3.8125l-4.765625 3.03125q-2.0625 1.328125 -3.15625 2.1875q-1.09375 0.859375 -1.53125 1.546875q-0.4375 0.671875 -0.609375 1.375q-0.109375 0.515625 -0.109375 1.6875l0 3.515625l10.171875 0l0 3.03125zm-12.796875 -3.03125l0 -6.515625q0 -2.078125 -0.421875 -3.25q-0.4375 -1.171875 -1.375 -1.78125q-0.953125 -0.609375 -2.0625 -0.609375q-1.625 0 -2.671875 1.1875q-1.046875 1.171875 -1.046875 3.71875l0 7.25l7.578125 0zm4.5 -18.625q-4.609375 0 -6.828125 -2.5625q-1.84375 -2.140625 -1.84375 -5.21875q0 -3.421875 2.25 -5.59375q2.234375 -2.171875 6.1875 -2.171875q3.203125 0 5.046875 0.96875q1.828125 0.953125 2.84375 2.796875q1.015625 1.828125 1.015625 4.0q0 3.484375 -2.234375 5.640625q-2.234375 2.140625 -6.4375 2.140625zm0 -2.890625q3.1875 0 4.78125 -1.390625q1.578125 -1.390625 1.578125 -3.5q0 -2.09375 -1.59375 -3.484375q-1.59375 -1.390625 -4.859375 -1.390625q-3.078125 0 -4.65625 1.40625q-1.59375 1.390625 -1.59375 3.46875q0 2.109375 1.578125 3.5q1.578125 1.390625 4.765625 1.390625zm8.296875 -19.015625l-16.59375 5.078125l0 -2.90625l9.578125 -2.640625l3.5625 -0.984375q-0.265625 -0.0625 -3.421875 -0.859375l-9.71875 -2.640625l0 -2.890625l9.625 -2.484375l3.171875 -0.828125l-3.203125 -0.953125l-9.59375 -2.84375l0 -2.734375l16.59375 5.1875l0 2.921875l-9.9375 2.640625l-2.828125 0.640625l12.765625 3.359375l0 2.9375zm-4.953125 -18.921875l-0.4375 -2.78125q1.671875 -0.234375 2.5625 -1.296875q0.890625 -1.078125 0.890625 -3.0q0 -1.9375 -0.78125 -2.875q-0.796875 -0.9375 -1.859375 -0.9375q-0.953125 0 -1.5 0.828125q-0.375 0.578125 -0.953125 2.875q-0.78125 3.09375 -1.34375 4.296875q-0.578125 1.1875 -1.578125 1.8125q-1.015625 0.609375 -2.234375 0.609375q-1.109375 0 -2.046875 -0.5q-0.953125 -0.515625 -1.578125 -1.390625q-0.484375 -0.65625 -0.8125 -1.78125q-0.34375 -1.140625 -0.34375 -2.4375q0 -1.953125 0.5625 -3.421875q0.5625 -1.484375 1.53125 -2.1875q0.953125 -0.703125 2.5625 -0.96875l0.375 2.75q-1.28125 0.1875 -2.0 1.09375q-0.71875 0.890625 -0.71875 2.53125q0 1.9375 0.640625 2.765625q0.640625 0.828125 1.5 0.828125q0.546875 0 0.984375 -0.34375q0.453125 -0.34375 0.75 -1.078125q0.15625 -0.421875 0.71875 -2.484375q0.796875 -2.984375 1.3125 -4.15625q0.5 -1.1875 1.46875 -1.859375q0.96875 -0.671875 2.40625 -0.671875q1.40625 0 2.65625 0.828125q1.234375 0.8125 1.921875 2.359375q0.671875 1.546875 0.671875 3.5q0 3.234375 -1.34375 4.9375q-1.34375 1.6875 -3.984375 2.15625z" fill-rule="nonzero"/><path fill="#999999" d="m289.0761 435.8924l11.275604 0l0 -52.44095l22.551178 0l0 52.44095l11.275574 0l-22.551178 22.551178z" fill-rule="evenodd"/><path stroke="#000000" stroke-width="1.0" stroke-linejoin="round" stroke-linecap="butt" d="m289.0761 435.8924l11.275604 0l0 -52.44095l22.551178 0l0 52.44095l11.275574 0l-22.551178 22.551178z" fill-rule="evenodd"/><path fill="#999999" d="m601.54333 651.5906l0 -11.275635l-52.44098 0l0 -22.551147l52.44098 0l0 -11.275635l22.551147 22.551208z" fill-rule="evenodd"/><path stroke="#000000" stroke-width="1.0" stroke-linejoin="round" stroke-linecap="butt" d="m601.54333 651.5906l0 -11.275635l-52.44098 0l0 -22.551147l52.44098 0l0 -11.275635l22.551147 22.551208z" fill-rule="evenodd"/></g></svg>