<svg version="1.1" viewBox="0.0 0.0 939.4146981627297 759.2283464566929" fill="none" stroke="none" stroke-linecap="square" stroke-miterlimit="10" xmlns:xlink="http://www.w3.org/1999/xlink" xmlns="http://www.w3.org/2000/svg"><clipPath id="p.0"><path d="m0 0l939.4147 0l0 759.22833l-939.4147 0l0 -759.22833z" clip-rule="nonzero"/></clipPath><g clip-path="url(#p.0)"><path fill="#000000" fill-opacity="0.0" d="m0 0l939.4147 0l0 759.22833l-939.4147 0z" fill-rule="evenodd"/><path fill="#ffffff" d="m0 0l941.2913 0l0 760.18896l-941.2913 0z" fill-rule="evenodd"/><path fill="#000000" fill-opacity="0.0" d="m67.15748 112.6273l195.14963 0l0 278.77167l-195.14963 0z" fill-rule="evenodd"/><path stroke="#000000" stroke-width="1.0" stroke-linejoin="round" stroke-linecap="butt" d="m67.15748 112.6273l195.14963 0l0 278.77167l-195.14963 0z" fill-rule="evenodd"/><path fill="#000000" fill-opacity="0.0" d="m67.77821 459.13123l195.14961 0l0 278.77167l-195.14961 0z" fill-rule="evenodd"/><path stroke="#000000" stroke-width="1.0" stroke-linejoin="round" stroke-linecap="butt" d="m67.77821 459.13123l195.14961 0l0 278.77167l-195.14961 0z" fill-rule="evenodd"/><path fill="#000000" fill-opacity="0.0" d="m387.94684 112.6273l195.1496 0l0 278.77167l-195.1496 0z" fill-rule="evenodd"/><path stroke="#000000" stroke-width="1.0" stroke-linejoin="round" stroke-linecap="butt" d="m387.94684 112.6273l195.1496 0l0 278.77167l-195.1496 0z" fill-rule="evenodd"/><path fill="#000000" fill-opacity="0.0" d="m388.5676 459.13123l195.14957 0l0 278.77167l-195.14957 0z" fill-rule="evenodd"/><path stroke="#000000" stroke-width="1.0" stroke-linejoin="round" stroke-linecap="butt" d="m388.5676 459.13123l195.14957 0l0 278.77167l-195.14957 0z" fill-rule="evenodd"/><path fill="#000000" fill-opacity="0.0" d="m709.0446 112.6273l195.1496 0l0 552.3779l-195.1496 0z" fill-rule="evenodd"/><path stroke="#000000" stroke-width="1.0" stroke-linejoin="round" stroke-linecap="butt" d="m709.0446 112.6273l195.1496 0l0 552.3779l-195.1496 0z" fill-rule="evenodd"/><path fill="#333333" d="m81.74278 151.74803l0 0c0 -12.454666 10.096504 -22.551178 22.551178 -22.551178l0 0c5.9809494 0 11.716927 2.3759155 15.946098 6.6050873c4.229164 4.2291718 6.6050873 9.965149 6.6050873 15.946091l0 0c0 12.454666 -10.096512 22.551178 -22.551186 22.551178l0 0c-12.454674 0 -22.551178 -10.096512 -22.551178 -22.551178zm11.275589 0l0 0c0 6.2273407 5.048256 11.275589 11.275589 11.275589c6.2273407 0 11.275597 -5.0482483 11.275597 -11.275589c0 -6.2273407 -5.048256 -11.275589 -11.275597 -11.275589l0 0c-6.227333 0 -11.275589 5.0482483 -11.275589 11.275589z" fill-rule="evenodd"/><path fill="#b50a08" d="m202.61548 129.19685l45.10237 0l0 45.102356l-45.10237 0z" fill-rule="evenodd"/><path fill="#999999" d="m142.1798 129.19685l45.102356 0l0 45.102356l-45.102356 0z" fill-rule="evenodd"/><path fill="#333333" d="m81.74278 240.28609l22.551178 -45.102356l22.551186 45.102356z" fill-rule="evenodd"/><path fill="#b50a08" d="m202.61548 195.18373l45.10237 0l0 45.102356l-45.10237 0z" fill-rule="evenodd"/><path fill="#999999" d="m142.1798 195.18373l45.102356 0l0 45.102356l-45.102356 0z" fill-rule="evenodd"/><path fill="#333333" d="m81.74278 283.72177l22.551178 -22.551178l22.551186 22.551178l-22.551186 22.551208z" fill-rule="evenodd"/><path fill="#b50a08" d="m202.61548 261.1706l45.10237 0l0 45.102386l-45.10237 0z" fill-rule="evenodd"/><path fill="#999999" d="m142.1798 261.1706l45.102356 0l0 45.102386l-45.102356 0z" fill-rule="evenodd"/><path fill="#333333" d="m81.74283 344.385l22.551132 -17.22754l22.55114 17.22754l-8.61377 27.874725l-27.874733 0z" fill-rule="evenodd"/><path fill="#b50a08" d="m202.61548 327.15747l45.10237 0l0 45.102386l-45.10237 0z" fill-rule="evenodd"/><path fill="#999999" d="m142.1798 327.15747l45.102356 0l0 45.102386l-45.102356 0z" fill-rule="evenodd"/><path fill="#000000" fill-opacity="0.0" d="m17.91601 335.30447l0 -166.58269l49.039375 0l0 166.58269z" fill-rule="evenodd"/><path fill="#333333" d="m49.956013 324.4451l-17.1875 0l0 -5.90625q0 -2.015625 0.25 -3.0625q0.34375 -1.484375 1.234375 -2.515625q1.140625 -1.359375 2.9375 -2.03125q1.78125 -0.6875 4.078125 -0.6875q1.953125 0 3.46875 0.46875q1.515625 0.453125 2.515625 1.171875q0.984375 0.703125 1.546875 1.5625q0.5625 0.84375 0.859375 2.046875q0.296875 1.203125 0.296875 2.765625l0 6.1875zm-2.03125 -2.265625l0 -3.671875q0 -1.703125 -0.3125 -2.65625q-0.3125 -0.96875 -0.890625 -1.546875q-0.8125 -0.8125 -2.171875 -1.265625q-1.375 -0.453125 -3.3125 -0.453125q-2.703125 0 -4.140625 0.890625q-1.453125 0.890625 -1.9375 2.15625q-0.359375 0.90625 -0.359375 2.9375l0 3.609375l13.125 0zm0.5 -22.910156q0.984375 1.171875 1.40625 2.265625q0.40625 1.078125 0.40625 2.3125q0 2.046875 -1.0 3.15625q-1.0 1.09375 -2.5625 1.09375q-0.921875 0 -1.671875 -0.40625q-0.75 -0.421875 -1.203125 -1.09375q-0.46875 -0.671875 -0.703125 -1.515625q-0.15625 -0.625 -0.3125 -1.875q-0.3125 -2.5625 -0.734375 -3.765625q-0.421875 -0.015625 -0.546875 -0.015625q-1.28125 0 -1.8125 0.609375q-0.71875 0.796875 -0.71875 2.390625q0 1.5 0.53125 2.203125q0.515625 0.703125 1.84375 1.046875l-0.28125 2.0625q-1.328125 -0.28125 -2.140625 -0.921875q-0.8125 -0.640625 -1.25 -1.859375q-0.453125 -1.21875 -0.453125 -2.828125q0 -1.59375 0.375 -2.59375q0.375 -1.0 0.953125 -1.46875q0.5625 -0.46875 1.4375 -0.65625q0.53125 -0.09375 1.9375 -0.09375l2.8125 0q2.9375 0 3.71875 -0.140625q0.78125 -0.140625 1.5 -0.53125l0 2.203125q-0.65625 0.328125 -1.53125 0.421875zm-4.71875 0.171875q0.46875 1.15625 0.796875 3.453125q0.1875 1.296875 0.421875 1.84375q0.234375 0.53125 0.6875 0.828125q0.453125 0.28125 1.0 0.28125q0.84375 0 1.40625 -0.625q0.5625 -0.640625 0.5625 -1.875q0 -1.21875 -0.53125 -2.171875q-0.53125 -0.953125 -1.453125 -1.390625q-0.71875 -0.34375 -2.109375 -0.34375l-0.78125 0zm4.359375 -10.003906l1.859375 -0.3125q0.203125 0.890625 0.203125 1.59375q0 1.15625 -0.359375 1.796875q-0.375 0.625 -0.96875 0.890625q-0.59375 0.25 -2.484375 0.25l-7.171875 0l0 1.546875l-1.640625 0l0 -1.546875l-3.078125 0l-1.265625 -2.09375l4.34375 0l0 -2.125l1.640625 0l0 2.125l7.28125 0q0.90625 0 1.171875 -0.109375q0.25 -0.125 0.40625 -0.375q0.140625 -0.25 0.140625 -0.71875q0 -0.34375 -0.078125 -0.921875zm0.359375 -10.183594q0.984375 1.171875 1.40625 2.265625q0.40625 1.078125 0.40625 2.3125q0 2.046875 -1.0 3.15625q-1.0 1.09375 -2.5625 1.09375q-0.921875 0 -1.671875 -0.40625q-0.75 -0.421875 -1.203125 -1.09375q-0.46875 -0.671875 -0.703125 -1.515625q-0.15625 -0.625 -0.3125 -1.875q-0.3125 -2.5625 -0.734375 -3.765625q-0.421875 -0.015625 -0.546875 -0.015625q-1.28125 0 -1.8125 0.609375q-0.71875 0.796875 -0.71875 2.390625q0 1.5 0.53125 2.203125q0.515625 0.703125 1.84375 1.046875l-0.28125 2.0625q-1.328125 -0.28125 -2.140625 -0.921875q-0.8125 -0.640625 -1.25 -1.859375q-0.453125 -1.21875 -0.453125 -2.828125q0 -1.59375 0.375 -2.59375q0.375 -1.0 0.953125 -1.46875q0.5625 -0.46875 1.4375 -0.65625q0.53125 -0.09375 1.9375 -0.09375l2.8125 0q2.9375 0 3.71875 -0.140625q0.78125 -0.140625 1.5 -0.53125l0 2.203125q-0.65625 0.328125 -1.53125 0.421875zm-4.71875 0.171875q0.46875 1.15625 0.796875 3.453125q0.1875 1.296875 0.421875 1.84375q0.234375 0.53125 0.6875 0.828125q0.453125 0.28125 1.0 0.28125q0.84375 0 1.40625 -0.625q0.5625 -0.640625 0.5625 -1.875q0 -1.21875 -0.53125 -2.171875q-0.53125 -0.953125 -1.453125 -1.390625q-0.71875 -0.34375 -2.109375 -0.34375l-0.78125 0zm6.25 -5.7851562l-17.1875 0l0 -11.59375l2.03125 0l0 9.3125l5.328125 0l0 -8.0625l2.015625 0l0 8.0625l7.8125 0l0 2.28125zm0 -14.253906l-12.453125 0l0 -1.890625l1.890625 0q-1.328125 -0.734375 -1.75 -1.34375q-0.421875 -0.62501526 -0.421875 -1.3593903q0 -1.0625 0.6875 -2.171875l1.953125 0.734375q-0.453125 0.765625 -0.453125 1.546875q0 0.6875 0.421875 1.2500153q0.40625 0.546875 1.140625 0.78125q1.125 0.34375 2.46875 0.34375l6.515625 0l0 2.109375zm-1.53125 -16.132828q0.984375 1.171875 1.40625 2.265625q0.40625 1.078125 0.40625 2.3125q0 2.046875 -1.0 3.15625q-1.0 1.09375 -2.5625 1.09375q-0.921875 0 -1.671875 -0.40625q-0.75 -0.421875 -1.203125 -1.09375q-0.46875 -0.671875 -0.703125 -1.515625q-0.15625 -0.625 -0.3125 -1.875q-0.3125 -2.5625 -0.734375 -3.765625q-0.421875 -0.015625 -0.546875 -0.015625q-1.28125 0 -1.8125 0.609375q-0.71875 0.796875 -0.71875 2.390625q0 1.5 0.53125 2.203125q0.515625 0.703125 1.84375 1.046875l-0.28125 2.0625q-1.328125 -0.28125 -2.140625 -0.921875q-0.8125 -0.640625 -1.25 -1.859375q-0.453125 -1.21875 -0.453125 -2.828125q0 -1.59375 0.375 -2.59375q0.375 -1.0 0.953125 -1.46875q0.5625 -0.46875 1.4375 -0.65625q0.53125 -0.09375 1.9375 -0.09375l2.8125 0q2.9375 0 3.71875 -0.140625q0.78125 -0.140625 1.5 -0.53125l0 2.203125q-0.65625 0.328125 -1.53125 0.421875zm-4.71875 0.171875q0.46875 1.15625 0.796875 3.453125q0.1875 1.296875 0.421875 1.84375q0.234375 0.53125 0.6875 0.828125q0.453125 0.28125 1.0 0.28125q0.84375 0 1.40625 -0.625q0.5625 -0.640625 0.5625 -1.875q0 -1.21875 -0.53125 -2.171875q-0.53125 -0.953125 -1.453125 -1.390625q-0.71875 -0.34375 -2.109375 -0.34375l-0.78125 0zm6.25 -5.3945312l-12.453125 0l0 -1.890625l1.75 0q-0.90625 -0.59375 -1.46875 -1.5625q-0.5625 -0.96875 -0.5625 -2.21875q0 -1.375 0.578125 -2.25q0.578125 -0.890625 1.609375 -1.265625q-2.1875 -1.46875 -2.1875 -3.84375q0 -1.84375 1.03125 -2.84375q1.03125 -1.0 3.15625 -1.0l8.546875 0l0 2.109375l-7.84375 0q-1.265625 0 -1.8125 0.203125q-0.5625 0.203125 -0.90625 0.75q-0.34375 0.53125 -0.34375 1.25q0 1.3125 0.875 2.1875q0.875 0.859375 2.796875 0.859375l7.234375 0l0 2.109375l-8.09375 0q-1.40625 0 -2.109375 0.515625q-0.703125 0.515625 -0.703125 1.6875q0 0.890625 0.46875 1.65625q0.46875 0.75 1.375 1.09375q0.90625 0.34375 2.609375 0.34375l6.453125 0l0 2.109375zm-4.015625 -28.523438l0.28125 -2.171875q1.90625 0.515625 2.96875 1.90625q1.046875 1.390625 1.046875 3.5625q0 2.734375 -1.671875 4.34375q-1.6875 1.59375 -4.734375 1.59375q-3.140625 0 -4.875 -1.609375q-1.734375 -1.625 -1.734375 -4.203125q0 -2.5 1.703125 -4.078125q1.703125 -1.59375 4.78125 -1.59375q0.1875 0 0.5625 0.015625l0 9.28125q2.046875 -0.109375 3.140625 -1.15625q1.09375 -1.046875 1.09375 -2.609375q0 -1.15625 -0.609375 -1.96875q-0.609375 -0.828125 -1.953125 -1.3125zm-3.40625 6.9375l0 -6.953125q-1.5625 0.140625 -2.359375 0.796875q-1.21875 1.0 -1.21875 2.609375q0 1.453125 0.984375 2.453125q0.96875 0.984375 2.59375 1.09375zm7.421875 -25.78125l0 2.109375l-13.4375 0q0.71875 0.75 1.453125 2.0q0.71875 1.234375 1.078125 2.21875l-2.03125 0q-0.828125 -1.78125 -2.015625 -3.09375q-1.1875 -1.328125 -2.296875 -1.875l0 -1.359375l17.25 0z" fill-rule="nonzero"/><path fill="#333333" d="m144.12993 499.53674l0 0c0 -12.454681 10.096497 -22.551178 22.551178 -22.551178l0 0c5.980942 0 11.716919 2.3759155 15.946091 6.605072c4.2291718 4.229187 6.6050873 9.965149 6.6050873 15.946106l0 0c0 12.454681 -10.096512 22.551208 -22.551178 22.551208l0 0c-12.454681 0 -22.551178 -10.096527 -22.551178 -22.551208z" fill-rule="evenodd"/><path fill="#b50a08" d="m203.23622 475.70078l45.102356 0l0 45.102386l-45.102356 0z" fill-rule="evenodd"/><path fill="#999999" d="m85.020996 476.98557l45.102356 0l0 45.102386l-45.102356 0z" fill-rule="evenodd"/><path fill="#333333" d="m144.12993 565.5236l22.551178 -22.551208l22.551178 22.551208l-11.275589 0l0 22.551208l-22.551178 0l0 -22.551208z" fill-rule="evenodd"/><path fill="#b50a08" d="m203.23622 541.6877l45.102356 0l0 45.102356l-45.102356 0z" fill-rule="evenodd"/><path fill="#999999" d="m85.020996 542.9724l45.102356 0l0 45.102417l-45.102356 0z" fill-rule="evenodd"/><path fill="#333333" d="m144.12993 620.2349l11.275589 0l0 -11.275635l22.551178 0l0 11.275635l11.275589 0l0 22.551147l-11.275589 0l0 11.275635l-22.551178 0l0 -11.275635l-11.275589 0z" fill-rule="evenodd"/><path fill="#b50a08" d="m203.23622 607.67456l45.102356 0l0 45.102356l-45.102356 0z" fill-rule="evenodd"/><path fill="#999999" d="m85.020996 608.9593l45.102356 0l0 45.102417l-45.102356 0z" fill-rule="evenodd"/><path fill="#333333" d="m144.12997 692.1737l17.227615 1.2207031E-4l5.323517 -17.227661l5.323517 17.227661l17.227615 -1.2207031E-4l-13.9375 10.647156l5.3237305 17.2276l-13.937363 -10.647339l-13.937378 10.647339l5.3237457 -17.2276z" fill-rule="evenodd"/><path fill="#b50a08" d="m203.23622 673.66144l45.102356 0l0 45.102356l-45.102356 0z" fill-rule="evenodd"/><path fill="#999999" d="m85.020996 674.94617l45.102356 0l0 45.102417l-45.102356 0z" fill-rule="evenodd"/><path fill="#000000" fill-opacity="0.0" d="m18.536745 681.8084l0 -166.5827l49.039375 0l0 166.5827z" fill-rule="evenodd"/><path fill="#333333" d="m50.576748 670.94904l-17.1875 0l0 -5.90625q0 -2.015625 0.25 -3.0625q0.34375 -1.484375 1.234375 -2.515625q1.140625 -1.359375 2.9375 -2.03125q1.78125 -0.6875 4.078125 -0.6875q1.953125 0 3.46875 0.46875q1.515625 0.453125 2.515625 1.171875q0.984375 0.703125 1.546875 1.5625q0.5625 0.84375 0.859375 2.046875q0.296875 1.203125 0.296875 2.765625l0 6.1875zm-2.03125 -2.265625l0 -3.671875q0 -1.703125 -0.3125 -2.65625q-0.3125 -0.96875 -0.890625 -1.546875q-0.8125 -0.8125 -2.171875 -1.265625q-1.375 -0.453125 -3.3125 -0.453125q-2.703125 0 -4.140625 0.890625q-1.453125 0.890625 -1.9375 2.15625q-0.359375 0.90625 -0.359375 2.9375l0 3.609375l13.125 0zm0.5 -22.910156q0.984375 1.171875 1.40625 2.265625q0.40625 1.078125 0.40625 2.3125q0 2.046875 -1.0 3.15625q-1.0 1.09375 -2.5625 1.09375q-0.921875 0 -1.671875 -0.40625q-0.75 -0.421875 -1.203125 -1.09375q-0.46875 -0.671875 -0.703125 -1.515625q-0.15625 -0.625 -0.3125 -1.875q-0.3125 -2.5625 -0.734375 -3.765625q-0.421875 -0.015625 -0.546875 -0.015625q-1.28125 0 -1.8125 0.609375q-0.71875 0.796875 -0.71875 2.390625q0 1.5 0.53125 2.203125q0.515625 0.703125 1.84375 1.046875l-0.28125 2.0625q-1.328125 -0.28125 -2.140625 -0.921875q-0.8125 -0.640625 -1.25 -1.859375q-0.453125 -1.21875 -0.453125 -2.828125q0 -1.59375 0.375 -2.59375q0.375 -1.0 0.953125 -1.46875q0.5625 -0.46875 1.4375 -0.65625q0.53125 -0.09375 1.9375 -0.09375l2.8125 0q2.9375 0 3.71875 -0.140625q0.78125 -0.140625 1.5 -0.53125l0 2.203125q-0.65625 0.328125 -1.53125 0.421875zm-4.71875 0.171875q0.46875 1.15625 0.796875 3.453125q0.1875 1.296875 0.421875 1.84375q0.234375 0.53125 0.6875 0.828125q0.453125 0.28125 1.0 0.28125q0.84375 0 1.40625 -0.625q0.5625 -0.640625 0.5625 -1.875q0 -1.21875 -0.53125 -2.171875q-0.53125 -0.953125 -1.453125 -1.390625q-0.71875 -0.34375 -2.109375 -0.34375l-0.78125 0zm4.359375 -10.003906l1.859375 -0.3125q0.203125 0.890625 0.203125 1.59375q0 1.15625 -0.359375 1.796875q-0.375 0.625 -0.96875 0.890625q-0.59375 0.25 -2.484375 0.25l-7.171875 0l0 1.546875l-1.640625 0l0 -1.546875l-3.078125 0l-1.265625 -2.09375l4.34375 0l0 -2.125l1.640625 0l0 2.125l7.28125 0q0.90625 0 1.171875 -0.109375q0.25 -0.125 0.40625 -0.375q0.140625 -0.25 0.140625 -0.71875q0 -0.34375 -0.078125 -0.921875zm0.359375 -10.183594q0.984375 1.171875 1.40625 2.265625q0.40625 1.078125 0.40625 2.3125q0 2.046875 -1.0 3.15625q-1.0 1.09375 -2.5625 1.09375q-0.921875 0 -1.671875 -0.40625q-0.75 -0.421875 -1.203125 -1.09375q-0.46875 -0.671875 -0.703125 -1.515625q-0.15625 -0.625 -0.3125 -1.875q-0.3125 -2.5625 -0.734375 -3.765625q-0.421875 -0.015625 -0.546875 -0.015625q-1.28125 0 -1.8125 0.609375q-0.71875 0.796875 -0.71875 2.390625q0 1.5 0.53125 2.203125q0.515625 0.703125 1.84375 1.046875l-0.28125 2.0625q-1.328125 -0.28125 -2.140625 -0.921875q-0.8125 -0.640625 -1.25 -1.859375q-0.453125 -1.21875 -0.453125 -2.828125q0 -1.59375 0.375 -2.59375q0.375 -1.0 0.953125 -1.46875q0.5625 -0.46875 1.4375 -0.65625q0.53125 -0.09375 1.9375 -0.09375l2.8125 0q2.9375 0 3.71875 -0.140625q0.78125 -0.140625 1.5 -0.53125l0 2.203125q-0.65625 0.328125 -1.53125 0.421875zm-4.71875 0.171875q0.46875 1.15625 0.796875 3.453125q0.1875 1.296875 0.421875 1.84375q0.234375 0.53125 0.6875 0.828125q0.453125 0.28125 1.0 0.28125q0.84375 0 1.40625 -0.625q0.5625 -0.640625 0.5625 -1.875q0 -1.21875 -0.53125 -2.171875q-0.53125 -0.953125 -1.453125 -1.390625q-0.71875 -0.34375 -2.109375 -0.34375l-0.78125 0zm6.25 -5.7851562l-17.1875 0l0 -11.59375l2.03125 0l0 9.3125l5.328125 0l0 -8.0625l2.015625 0l0 8.0625l7.8125 0l0 2.28125zm0 -14.253906l-12.453125 0l0 -1.890625l1.890625 0q-1.328125 -0.734375 -1.75 -1.34375q-0.421875 -0.625 -0.421875 -1.359375q0 -1.0625 0.6875 -2.171875l1.953125 0.734375q-0.453125 0.765625 -0.453125 1.546875q0 0.6875 0.421875 1.25q0.40625 0.546875 1.140625 0.78125q1.125 0.34375 2.46875 0.34375l6.515625 0l0 2.109375zm-1.53125 -16.132812q0.984375 1.171875 1.40625 2.265625q0.40625 1.078125 0.40625 2.3125q0 2.046875 -1.0 3.15625q-1.0 1.09375 -2.5625 1.09375q-0.921875 0 -1.671875 -0.40625q-0.75 -0.421875 -1.203125 -1.09375q-0.46875 -0.671875 -0.703125 -1.515625q-0.15625 -0.625 -0.3125 -1.875q-0.3125 -2.5625 -0.734375 -3.765625q-0.421875 -0.015625 -0.546875 -0.015625q-1.28125 0 -1.8125 0.609375q-0.71875 0.796875 -0.71875 2.390625q0 1.5 0.53125 2.203125q0.515625 0.703125 1.84375 1.046875l-0.28125 2.0625q-1.328125 -0.28125 -2.140625 -0.921875q-0.8125 -0.640625 -1.25 -1.859375q-0.453125 -1.21875 -0.453125 -2.828125q0 -1.59375 0.375 -2.59375q0.375 -1.0 0.953125 -1.46875q0.5625 -0.46875 1.4375 -0.65625q0.53125 -0.09375 1.9375 -0.09375l2.8125 0q2.9375 0 3.71875 -0.140625q0.78125 -0.140625 1.5 -0.53125l0 2.203125q-0.65625 0.328125 -1.53125 0.421875zm-4.71875 0.171875q0.46875 1.15625 0.796875 3.453125q0.1875 1.296875 0.421875 1.84375q0.234375 0.53125 0.6875 0.828125q0.453125 0.28125 1.0 0.28125q0.84375 0 1.40625 -0.625q0.5625 -0.640625 0.5625 -1.875q0 -1.21875 -0.53125 -2.171875q-0.53125 -0.953125 -1.453125 -1.390625q-0.71875 -0.34375 -2.109375 -0.34375l-0.78125 0zm6.25 -5.3945312l-12.453125 0l0 -1.890625l1.75 0q-0.90625 -0.59375 -1.46875 -1.5625q-0.5625 -0.96875 -0.5625 -2.21875q0 -1.375 0.578125 -2.25q0.578125 -0.890625 1.609375 -1.265625q-2.1875 -1.46875 -2.1875 -3.84375q0 -1.84375 1.03125 -2.84375q1.03125 -1.0 3.15625 -1.0l8.546875 0l0 2.109375l-7.84375 0q-1.265625 0 -1.8125 0.203125q-0.5625 0.203125 -0.90625 0.75q-0.34375 0.53125 -0.34375 1.25q0 1.3125 0.875 2.1875q0.875 0.859375 2.796875 0.859375l7.234375 0l0 2.109375l-8.09375 0q-1.40625 0 -2.109375 0.515625q-0.703125 0.515625 -0.703125 1.6875q0 0.890625 0.46875 1.65625q0.46875 0.75 1.375 1.09375q0.90625 0.34375 2.609375 0.34375l6.453125 0l0 2.109375zm-4.015625 -28.523438l0.28125 -2.171875q1.90625 0.515625 2.96875 1.90625q1.046875 1.390625 1.046875 3.5625q0 2.734375 -1.671875 4.34375q-1.6875 1.59375 -4.734375 1.59375q-3.140625 0 -4.875 -1.609375q-1.734375 -1.625 -1.734375 -4.203125q0 -2.5 1.703125 -4.078125q1.703125 -1.59375 4.78125 -1.59375q0.1875 0 0.5625 0.015625l0 9.28125q2.046875 -0.109375 3.140625 -1.15625q1.09375 -1.046875 1.09375 -2.609375q0 -1.15625 -0.609375 -1.96875q-0.609375 -0.828125 -1.953125 -1.3125zm-3.40625 6.9375l0 -6.953125q-1.5625 0.140625 -2.359375 0.796875q-1.21875 1.0 -1.21875 2.609375q0 1.453125 0.984375 2.453125q0.96875 0.984375 2.59375 1.09375zm5.390625 -28.921875l2.03125 0l0 11.34375q-0.765625 0.03125 -1.46875 -0.234375q-1.15625 -0.4375 -2.28125 -1.390625q-1.125 -0.953125 -2.609375 -2.765625q-2.296875 -2.796875 -3.625 -3.78125q-1.34375 -0.984375 -2.546875 -0.984375q-1.25 0 -2.109375 0.90625q-0.859375 0.890625 -0.859375 2.328125q0 1.515625 0.921875 2.4375q0.90625 0.90625 2.515625 0.921875l-0.21875 2.171875q-2.421875 -0.21875 -3.6875 -1.671875q-1.28125 -1.453125 -1.28125 -3.90625q0 -2.46875 1.375 -3.90625q1.359375 -1.453125 3.390625 -1.453125q1.03125 0 2.03125 0.421875q1.0 0.421875 2.109375 1.40625q1.09375 0.96875 3.015625 3.25q1.59375 1.890625 2.15625 2.4375q0.5625 0.53125 1.140625 0.890625l0 -8.421875z" fill-rule="nonzero"/><path fill="#333333" d="m402.53217 151.74803l0 0c0 -12.454666 10.096497 -22.551178 22.551178 -22.551178l0 0c5.9809265 0 11.716919 2.3759155 15.946075 6.6050873c4.229187 4.2291718 6.6051025 9.965149 6.6051025 15.946091l0 0c0 12.454666 -10.096527 22.551178 -22.551178 22.551178l0 0c-12.454681 0 -22.551178 -10.096512 -22.551178 -22.551178zm11.275574 0l0 0c0 6.2273407 5.0482483 11.275589 11.275604 11.275589c6.2273254 0 11.275574 -5.0482483 11.275574 -11.275589c0 -6.2273407 -5.0482483 -11.275589 -11.275574 -11.275589l0 0c-6.227356 0 -11.275604 5.0482483 -11.275604 11.275589z" fill-rule="evenodd"/><path fill="#b50a08" d="m523.40485 129.19685l45.102356 0l0 45.102356l-45.102356 0z" fill-rule="evenodd"/><path fill="#999999" d="m462.96915 129.19685l45.102386 0l0 45.102356l-45.102386 0z" fill-rule="evenodd"/><path fill="#333333" d="m402.53217 240.28609l22.551178 -45.102356l22.551178 45.102356z" fill-rule="evenodd"/><path fill="#b50a08" d="m523.40485 195.18373l45.102356 0l0 45.102356l-45.102356 0z" fill-rule="evenodd"/><path fill="#999999" d="m462.96915 195.18373l45.102386 0l0 45.102356l-45.102386 0z" fill-rule="evenodd"/><path fill="#333333" d="m402.53217 283.72177l22.551178 -22.551178l22.551178 22.551178l-22.551178 22.551208z" fill-rule="evenodd"/><path fill="#b50a08" d="m523.40485 261.1706l45.102356 0l0 45.102386l-45.102356 0z" fill-rule="evenodd"/><path fill="#999999" d="m462.96915 261.1706l45.102386 0l0 45.102386l-45.102386 0z" fill-rule="evenodd"/><path fill="#333333" d="m402.5322 344.385l22.551147 -17.22754l22.551117 17.22754l-8.61377 27.874725l-27.874725 0z" fill-rule="evenodd"/><path fill="#b50a08" d="m523.40485 327.15747l45.102356 0l0 45.102386l-45.102356 0z" fill-rule="evenodd"/><path fill="#999999" d="m462.96915 327.15747l45.102386 0l0 45.102386l-45.102386 0z" fill-rule="evenodd"/><path fill="#000000" fill-opacity="0.0" d="m338.70538 335.30447l0 -166.58269l49.039368 0l0 166.58269z" fill-rule="evenodd"/><path fill="#333333" d="m370.7454 324.4451l-17.1875 0l0 -5.90625q0 -2.015625 0.25 -3.0625q0.34375 -1.484375 1.234375 -2.515625q1.140625 -1.359375 2.9375 -2.03125q1.78125 -0.6875 4.078125 -0.6875q1.953125 0 3.46875 0.46875q1.515625 0.453125 2.515625 1.171875q0.984375 0.703125 1.546875 1.5625q0.5625 0.84375 0.859375 2.046875q0.296875 1.203125 0.296875 2.765625l0 6.1875zm-2.03125 -2.265625l0 -3.671875q0 -1.703125 -0.3125 -2.65625q-0.3125 -0.96875 -0.890625 -1.546875q-0.8125 -0.8125 -2.171875 -1.265625q-1.375 -0.453125 -3.3125 -0.453125q-2.703125 0 -4.140625 0.890625q-1.453125 0.890625 -1.9375 2.15625q-0.359375 0.90625 -0.359375 2.9375l0 3.609375l13.125 0zm0.5 -22.910156q0.984375 1.171875 1.40625 2.265625q0.40625 1.078125 0.40625 2.3125q0 2.046875 -1.0 3.15625q-1.0 1.09375 -2.5625 1.09375q-0.921875 0 -1.671875 -0.40625q-0.75 -0.421875 -1.203125 -1.09375q-0.46875 -0.671875 -0.703125 -1.515625q-0.15625 -0.625 -0.3125 -1.875q-0.3125 -2.5625 -0.734375 -3.765625q-0.421875 -0.015625 -0.546875 -0.015625q-1.28125 0 -1.8125 0.609375q-0.71875 0.796875 -0.71875 2.390625q0 1.5 0.53125 2.203125q0.515625 0.703125 1.84375 1.046875l-0.28125 2.0625q-1.328125 -0.28125 -2.140625 -0.921875q-0.8125 -0.640625 -1.25 -1.859375q-0.453125 -1.21875 -0.453125 -2.828125q0 -1.59375 0.375 -2.59375q0.375 -1.0 0.953125 -1.46875q0.5625 -0.46875 1.4375 -0.65625q0.53125 -0.09375 1.9375 -0.09375l2.8125 0q2.9375 0 3.71875 -0.140625q0.78125 -0.140625 1.5 -0.53125l0 2.203125q-0.65625 0.328125 -1.53125 0.421875zm-4.71875 0.171875q0.46875 1.15625 0.796875 3.453125q0.1875 1.296875 0.421875 1.84375q0.234375 0.53125 0.6875 0.828125q0.453125 0.28125 1.0 0.28125q0.84375 0 1.40625 -0.625q0.5625 -0.640625 0.5625 -1.875q0 -1.21875 -0.53125 -2.171875q-0.53125 -0.953125 -1.453125 -1.390625q-0.71875 -0.34375 -2.109375 -0.34375l-0.78125 0zm4.359375 -10.003906l1.859375 -0.3125q0.203125 0.890625 0.203125 1.59375q0 1.15625 -0.359375 1.796875q-0.375 0.625 -0.96875 0.890625q-0.59375 0.25 -2.484375 0.25l-7.171875 0l0 1.546875l-1.640625 0l0 -1.546875l-3.078125 0l-1.265625 -2.09375l4.34375 0l0 -2.125l1.640625 0l0 2.125l7.28125 0q0.90625 0 1.171875 -0.109375q0.25 -0.125 0.40625 -0.375q0.140625 -0.25 0.140625 -0.71875q0 -0.34375 -0.078125 -0.921875zm0.359375 -10.183594q0.984375 1.171875 1.40625 2.265625q0.40625 1.078125 0.40625 2.3125q0 2.046875 -1.0 3.15625q-1.0 1.09375 -2.5625 1.09375q-0.921875 0 -1.671875 -0.40625q-0.75 -0.421875 -1.203125 -1.09375q-0.46875 -0.671875 -0.703125 -1.515625q-0.15625 -0.625 -0.3125 -1.875q-0.3125 -2.5625 -0.734375 -3.765625q-0.421875 -0.015625 -0.546875 -0.015625q-1.28125 0 -1.8125 0.609375q-0.71875 0.796875 -0.71875 2.390625q0 1.5 0.53125 2.203125q0.515625 0.703125 1.84375 1.046875l-0.28125 2.0625q-1.328125 -0.28125 -2.140625 -0.921875q-0.8125 -0.640625 -1.25 -1.859375q-0.453125 -1.21875 -0.453125 -2.828125q0 -1.59375 0.375 -2.59375q0.375 -1.0 0.953125 -1.46875q0.5625 -0.46875 1.4375 -0.65625q0.53125 -0.09375 1.9375 -0.09375l2.8125 0q2.9375 0 3.71875 -0.140625q0.78125 -0.140625 1.5 -0.53125l0 2.203125q-0.65625 0.328125 -1.53125 0.421875zm-4.71875 0.171875q0.46875 1.15625 0.796875 3.453125q0.1875 1.296875 0.421875 1.84375q0.234375 0.53125 0.6875 0.828125q0.453125 0.28125 1.0 0.28125q0.84375 0 1.40625 -0.625q0.5625 -0.640625 0.5625 -1.875q0 -1.21875 -0.53125 -2.171875q-0.53125 -0.953125 -1.453125 -1.390625q-0.71875 -0.34375 -2.109375 -0.34375l-0.78125 0zm6.25 -5.7851562l-17.1875 0l0 -11.59375l2.03125 0l0 9.3125l5.328125 0l0 -8.0625l2.015625 0l0 8.0625l7.8125 0l0 2.28125zm0 -14.253906l-12.453125 0l0 -1.890625l1.890625 0q-1.328125 -0.734375 -1.75 -1.34375q-0.421875 -0.62501526 -0.421875 -1.3593903q0 -1.0625 0.6875 -2.171875l1.953125 0.734375q-0.453125 0.765625 -0.453125 1.546875q0 0.6875 0.421875 1.2500153q0.40625 0.546875 1.140625 0.78125q1.125 0.34375 2.46875 0.34375l6.515625 0l0 2.109375zm-1.53125 -16.132828q0.984375 1.171875 1.40625 2.265625q0.40625 1.078125 0.40625 2.3125q0 2.046875 -1.0 3.15625q-1.0 1.09375 -2.5625 1.09375q-0.921875 0 -1.671875 -0.40625q-0.75 -0.421875 -1.203125 -1.09375q-0.46875 -0.671875 -0.703125 -1.515625q-0.15625 -0.625 -0.3125 -1.875q-0.3125 -2.5625 -0.734375 -3.765625q-0.421875 -0.015625 -0.546875 -0.015625q-1.28125 0 -1.8125 0.609375q-0.71875 0.796875 -0.71875 2.390625q0 1.5 0.53125 2.203125q0.515625 0.703125 1.84375 1.046875l-0.28125 2.0625q-1.328125 -0.28125 -2.140625 -0.921875q-0.8125 -0.640625 -1.25 -1.859375q-0.453125 -1.21875 -0.453125 -2.828125q0 -1.59375 0.375 -2.59375q0.375 -1.0 0.953125 -1.46875q0.5625 -0.46875 1.4375 -0.65625q0.53125 -0.09375 1.9375 -0.09375l2.8125 0q2.9375 0 3.71875 -0.140625q0.78125 -0.140625 1.5 -0.53125l0 2.203125q-0.65625 0.328125 -1.53125 0.421875zm-4.71875 0.171875q0.46875 1.15625 0.796875 3.453125q0.1875 1.296875 0.421875 1.84375q0.234375 0.53125 0.6875 0.828125q0.453125 0.28125 1.0 0.28125q0.84375 0 1.40625 -0.625q0.5625 -0.640625 0.5625 -1.875q0 -1.21875 -0.53125 -2.171875q-0.53125 -0.953125 -1.453125 -1.390625q-0.71875 -0.34375 -2.109375 -0.34375l-0.78125 0zm6.25 -5.3945312l-12.453125 0l0 -1.890625l1.75 0q-0.90625 -0.59375 -1.46875 -1.5625q-0.5625 -0.96875 -0.5625 -2.21875q0 -1.375 0.578125 -2.25q0.578125 -0.890625 1.609375 -1.265625q-2.1875 -1.46875 -2.1875 -3.84375q0 -1.84375 1.03125 -2.84375q1.03125 -1.0 3.15625 -1.0l8.546875 0l0 2.109375l-7.84375 0q-1.265625 0 -1.8125 0.203125q-0.5625 0.203125 -0.90625 0.75q-0.34375 0.53125 -0.34375 1.25q0 1.3125 0.875 2.1875q0.875 0.859375 2.796875 0.859375l7.234375 0l0 2.109375l-8.09375 0q-1.40625 0 -2.109375 0.515625q-0.703125 0.515625 -0.703125 1.6875q0 0.890625 0.46875 1.65625q0.46875 0.75 1.375 1.09375q0.90625 0.34375 2.609375 0.34375l6.453125 0l0 2.109375zm-4.015625 -28.523438l0.28125 -2.171875q1.90625 0.515625 2.96875 1.90625q1.046875 1.390625 1.046875 3.5625q0 2.734375 -1.671875 4.34375q-1.6875 1.59375 -4.734375 1.59375q-3.140625 0 -4.875 -1.609375q-1.734375 -1.625 -1.734375 -4.203125q0 -2.5 1.703125 -4.078125q1.703125 -1.59375 4.78125 -1.59375q0.1875 0 0.5625 0.015625l0 9.28125q2.046875 -0.109375 3.140625 -1.15625q1.09375 -1.046875 1.09375 -2.609375q0 -1.15625 -0.609375 -1.96875q-0.609375 -0.828125 -1.953125 -1.3125zm-3.40625 6.9375l0 -6.953125q-1.5625 0.140625 -2.359375 0.796875q-1.21875 1.0 -1.21875 2.609375q0 1.453125 0.984375 2.453125q0.96875 0.984375 2.59375 1.09375zm7.421875 -25.78125l0 2.109375l-13.4375 0q0.71875 0.75 1.453125 2.0q0.71875 1.234375 1.078125 2.21875l-2.03125 0q-0.828125 -1.78125 -2.015625 -3.09375q-1.1875 -1.328125 -2.296875 -1.875l0 -1.359375l17.25 0z" fill-rule="nonzero"/><path fill="#333333" d="m402.53085 499.53674l0 0c0 -12.454681 10.096497 -22.551178 22.551178 -22.551178l0 0c5.9809265 0 11.716919 2.3759155 15.946075 6.605072c4.229187 4.229187 6.6051025 9.965149 6.6051025 15.946106l0 0c0 12.454681 -10.096527 22.551208 -22.551178 22.551208l0 0c-12.454681 0 -22.551178 -10.096527 -22.551178 -22.551208z" fill-rule="evenodd"/><path fill="#b50a08" d="m524.0256 475.70078l45.102356 0l0 45.102386l-45.102356 0z" fill-rule="evenodd"/><path fill="#999999" d="m463.27756 476.98425l45.102356 0l0 45.102356l-45.102356 0z" fill-rule="evenodd"/><path fill="#333333" d="m402.53085 565.5236l22.551178 -22.551208l22.551178 22.551208l-11.275604 0l0 22.551208l-22.551178 0l0 -22.551208z" fill-rule="evenodd"/><path fill="#b50a08" d="m524.0256 541.6877l45.102356 0l0 45.102356l-45.102356 0z" fill-rule="evenodd"/><path fill="#999999" d="m463.27756 542.9711l45.102356 0l0 45.102356l-45.102356 0z" fill-rule="evenodd"/><path fill="#333333" d="m402.53085 620.2349l11.275574 0l0 -11.275635l22.551178 0l0 11.275635l11.275604 0l0 22.551147l-11.275604 0l0 11.275635l-22.551178 0l0 -11.275635l-11.275574 0z" fill-rule="evenodd"/><path fill="#b50a08" d="m524.0256 607.67456l45.102356 0l0 45.102356l-45.102356 0z" fill-rule="evenodd"/><path fill="#999999" d="m463.27756 608.958l45.102356 0l0 45.102356l-45.102356 0z" fill-rule="evenodd"/><path fill="#333333" d="m402.53088 692.1737l17.22763 1.2207031E-4l5.323517 -17.227661l5.323517 17.227661l17.2276 -1.2207031E-4l-13.9375 10.647156l5.3237305 17.2276l-13.937347 -10.647339l-13.937378 10.647339l5.3237305 -17.2276z" fill-rule="evenodd"/><path fill="#b50a08" d="m524.0256 673.66144l45.102356 0l0 45.102356l-45.102356 0z" fill-rule="evenodd"/><path fill="#999999" d="m463.27756 674.9449l45.102356 0l0 45.102356l-45.102356 0z" fill-rule="evenodd"/><path fill="#000000" fill-opacity="0.0" d="m339.3261 681.8084l0 -166.5827l49.039368 0l0 166.5827z" fill-rule="evenodd"/><path fill="#333333" d="m371.36612 670.94904l-17.1875 0l0 -5.90625q0 -2.015625 0.25 -3.0625q0.34375 -1.484375 1.234375 -2.515625q1.140625 -1.359375 2.9375 -2.03125q1.78125 -0.6875 4.078125 -0.6875q1.953125 0 3.46875 0.46875q1.515625 0.453125 2.515625 1.171875q0.984375 0.703125 1.546875 1.5625q0.5625 0.84375 0.859375 2.046875q0.296875 1.203125 0.296875 2.765625l0 6.1875zm-2.03125 -2.265625l0 -3.671875q0 -1.703125 -0.3125 -2.65625q-0.3125 -0.96875 -0.890625 -1.546875q-0.8125 -0.8125 -2.171875 -1.265625q-1.375 -0.453125 -3.3125 -0.453125q-2.703125 0 -4.140625 0.890625q-1.453125 0.890625 -1.9375 2.15625q-0.359375 0.90625 -0.359375 2.9375l0 3.609375l13.125 0zm0.5 -22.910156q0.984375 1.171875 1.40625 2.265625q0.40625 1.078125 0.40625 2.3125q0 2.046875 -1.0 3.15625q-1.0 1.09375 -2.5625 1.09375q-0.921875 0 -1.671875 -0.40625q-0.75 -0.421875 -1.203125 -1.09375q-0.46875 -0.671875 -0.703125 -1.515625q-0.15625 -0.625 -0.3125 -1.875q-0.3125 -2.5625 -0.734375 -3.765625q-0.421875 -0.015625 -0.546875 -0.015625q-1.28125 0 -1.8125 0.609375q-0.71875 0.796875 -0.71875 2.390625q0 1.5 0.53125 2.203125q0.515625 0.703125 1.84375 1.046875l-0.28125 2.0625q-1.328125 -0.28125 -2.140625 -0.921875q-0.8125 -0.640625 -1.25 -1.859375q-0.453125 -1.21875 -0.453125 -2.828125q0 -1.59375 0.375 -2.59375q0.375 -1.0 0.953125 -1.46875q0.5625 -0.46875 1.4375 -0.65625q0.53125 -0.09375 1.9375 -0.09375l2.8125 0q2.9375 0 3.71875 -0.140625q0.78125 -0.140625 1.5 -0.53125l0 2.203125q-0.65625 0.328125 -1.53125 0.421875zm-4.71875 0.171875q0.46875 1.15625 0.796875 3.453125q0.1875 1.296875 0.421875 1.84375q0.234375 0.53125 0.6875 0.828125q0.453125 0.28125 1.0 0.28125q0.84375 0 1.40625 -0.625q0.5625 -0.640625 0.5625 -1.875q0 -1.21875 -0.53125 -2.171875q-0.53125 -0.953125 -1.453125 -1.390625q-0.71875 -0.34375 -2.109375 -0.34375l-0.78125 0zm4.359375 -10.003906l1.859375 -0.3125q0.203125 0.890625 0.203125 1.59375q0 1.15625 -0.359375 1.796875q-0.375 0.625 -0.96875 0.890625q-0.59375 0.25 -2.484375 0.25l-7.171875 0l0 1.546875l-1.640625 0l0 -1.546875l-3.078125 0l-1.265625 -2.09375l4.34375 0l0 -2.125l1.640625 0l0 2.125l7.28125 0q0.90625 0 1.171875 -0.109375q0.25 -0.125 0.40625 -0.375q0.140625 -0.25 0.140625 -0.71875q0 -0.34375 -0.078125 -0.921875zm0.359375 -10.183594q0.984375 1.171875 1.40625 2.265625q0.40625 1.078125 0.40625 2.3125q0 2.046875 -1.0 3.15625q-1.0 1.09375 -2.5625 1.09375q-0.921875 0 -1.671875 -0.40625q-0.75 -0.421875 -1.203125 -1.09375q-0.46875 -0.671875 -0.703125 -1.515625q-0.15625 -0.625 -0.3125 -1.875q-0.3125 -2.5625 -0.734375 -3.765625q-0.421875 -0.015625 -0.546875 -0.015625q-1.28125 0 -1.8125 0.609375q-0.71875 0.796875 -0.71875 2.390625q0 1.5 0.53125 2.203125q0.515625 0.703125 1.84375 1.046875l-0.28125 2.0625q-1.328125 -0.28125 -2.140625 -0.921875q-0.8125 -0.640625 -1.25 -1.859375q-0.453125 -1.21875 -0.453125 -2.828125q0 -1.59375 0.375 -2.59375q0.375 -1.0 0.953125 -1.46875q0.5625 -0.46875 1.4375 -0.65625q0.53125 -0.09375 1.9375 -0.09375l2.8125 0q2.9375 0 3.71875 -0.140625q0.78125 -0.140625 1.5 -0.53125l0 2.203125q-0.65625 0.328125 -1.53125 0.421875zm-4.71875 0.171875q0.46875 1.15625 0.796875 3.453125q0.1875 1.296875 0.421875 1.84375q0.234375 0.53125 0.6875 0.828125q0.453125 0.28125 1.0 0.28125q0.84375 0 1.40625 -0.625q0.5625 -0.640625 0.5625 -1.875q0 -1.21875 -0.53125 -2.171875q-0.53125 -0.953125 -1.453125 -1.390625q-0.71875 -0.34375 -2.109375 -0.34375l-0.78125 0zm6.25 -5.7851562l-17.1875 0l0 -11.59375l2.03125 0l0 9.3125l5.328125 0l0 -8.0625l2.015625 0l0 8.0625l7.8125 0l0 2.28125zm0 -14.253906l-12.453125 0l0 -1.890625l1.890625 0q-1.328125 -0.734375 -1.75 -1.34375q-0.421875 -0.625 -0.421875 -1.359375q0 -1.0625 0.6875 -2.171875l1.953125 0.734375q-0.453125 0.765625 -0.453125 1.546875q0 0.6875 0.421875 1.25q0.40625 0.546875 1.140625 0.78125q1.125 0.34375 2.46875 0.34375l6.515625 0l0 2.109375zm-1.53125 -16.132812q0.984375 1.171875 1.40625 2.265625q0.40625 1.078125 0.40625 2.3125q0 2.046875 -1.0 3.15625q-1.0 1.09375 -2.5625 1.09375q-0.921875 0 -1.671875 -0.40625q-0.75 -0.421875 -1.203125 -1.09375q-0.46875 -0.671875 -0.703125 -1.515625q-0.15625 -0.625 -0.3125 -1.875q-0.3125 -2.5625 -0.734375 -3.765625q-0.421875 -0.015625 -0.546875 -0.015625q-1.28125 0 -1.8125 0.609375q-0.71875 0.796875 -0.71875 2.390625q0 1.5 0.53125 2.203125q0.515625 0.703125 1.84375 1.046875l-0.28125 2.0625q-1.328125 -0.28125 -2.140625 -0.921875q-0.8125 -0.640625 -1.25 -1.859375q-0.453125 -1.21875 -0.453125 -2.828125q0 -1.59375 0.375 -2.59375q0.375 -1.0 0.953125 -1.46875q0.5625 -0.46875 1.4375 -0.65625q0.53125 -0.09375 1.9375 -0.09375l2.8125 0q2.9375 0 3.71875 -0.140625q0.78125 -0.140625 1.5 -0.53125l0 2.203125q-0.65625 0.328125 -1.53125 0.421875zm-4.71875 0.171875q0.46875 1.15625 0.796875 3.453125q0.1875 1.296875 0.421875 1.84375q0.234375 0.53125 0.6875 0.828125q0.453125 0.28125 1.0 0.28125q0.84375 0 1.40625 -0.625q0.5625 -0.640625 0.5625 -1.875q0 -1.21875 -0.53125 -2.171875q-0.53125 -0.953125 -1.453125 -1.390625q-0.71875 -0.34375 -2.109375 -0.34375l-0.78125 0zm6.25 -5.3945312l-12.453125 0l0 -1.890625l1.75 0q-0.90625 -0.59375 -1.46875 -1.5625q-0.5625 -0.96875 -0.5625 -2.21875q0 -1.375 0.578125 -2.25q0.578125 -0.890625 1.609375 -1.265625q-2.1875 -1.46875 -2.1875 -3.84375q0 -1.84375 1.03125 -2.84375q1.03125 -1.0 3.15625 -1.0l8.546875 0l0 2.109375l-7.84375 0q-1.265625 0 -1.8125 0.203125q-0.5625 0.203125 -0.90625 0.75q-0.34375 0.53125 -0.34375 1.25q0 1.3125 0.875 2.1875q0.875 0.859375 2.796875 0.859375l7.234375 0l0 2.109375l-8.09375 0q-1.40625 0 -2.109375 0.515625q-0.703125 0.515625 -0.703125 1.6875q0 0.890625 0.46875 1.65625q0.46875 0.75 1.375 1.09375q0.90625 0.34375 2.609375 0.34375l6.453125 0l0 2.109375zm-4.015625 -28.523438l0.28125 -2.171875q1.90625 0.515625 2.96875 1.90625q1.046875 1.390625 1.046875 3.5625q0 2.734375 -1.671875 4.34375q-1.6875 1.59375 -4.734375 1.59375q-3.140625 0 -4.875 -1.609375q-1.734375 -1.625 -1.734375 -4.203125q0 -2.5 1.703125 -4.078125q1.703125 -1.59375 4.78125 -1.59375q0.1875 0 0.5625 0.015625l0 9.28125q2.046875 -0.109375 3.140625 -1.15625q1.09375 -1.046875 1.09375 -2.609375q0 -1.15625 -0.609375 -1.96875q-0.609375 -0.828125 -1.953125 -1.3125zm-3.40625 6.9375l0 -6.953125q-1.5625 0.140625 -2.359375 0.796875q-1.21875 1.0 -1.21875 2.609375q0 1.453125 0.984375 2.453125q0.96875 0.984375 2.59375 1.09375zm5.390625 -28.921875l2.03125 0l0 11.34375q-0.765625 0.03125 -1.46875 -0.234375q-1.15625 -0.4375 -2.28125 -1.390625q-1.125 -0.953125 -2.609375 -2.765625q-2.296875 -2.796875 -3.625 -3.78125q-1.34375 -0.984375 -2.546875 -0.984375q-1.25 0 -2.109375 0.90625q-0.859375 0.890625 -0.859375 2.328125q0 1.515625 0.921875 2.4375q0.90625 0.90625 2.515625 0.921875l-0.21875 2.171875q-2.421875 -0.21875 -3.6875 -1.671875q-1.28125 -1.453125 -1.28125 -3.90625q0 -2.46875 1.375 -3.90625q1.359375 -1.453125 3.390625 -1.453125q1.03125 0 2.03125 0.421875q1.0 0.421875 2.109375 1.40625q1.09375 0.96875 3.015625 3.25q1.59375 1.890625 2.15625 2.4375q0.5625 0.53125 1.140625 0.890625l0 -8.421875z" fill-rule="nonzero"/><path fill="#333333" d="m723.62994 151.74803l0 0c0 -12.454666 10.096497 -22.551178 22.551147 -22.551178l0 0c5.980957 0 11.716919 2.3759155 15.946106 6.6050873c4.229187 4.2291718 6.6051025 9.965149 6.6051025 15.946091l0 0c0 12.454666 -10.096497 22.551178 -22.551208 22.551178l0 0c-12.454651 0 -22.551147 -10.096512 -22.551147 -22.551178zm11.275574 0l0 0c0 6.2273407 5.048218 11.275589 11.275574 11.275589c6.227356 0 11.275574 -5.0482483 11.275574 -11.275589c0 -6.2273407 -5.048218 -11.275589 -11.275574 -11.275589l0 0c-6.227356 0 -11.275574 5.0482483 -11.275574 11.275589z" fill-rule="evenodd"/><path fill="#b50a08" d="m844.5026 129.19685l45.102356 0l0 45.102356l-45.102356 0z" fill-rule="evenodd"/><path fill="#999999" d="m784.06696 129.19685l45.102356 0l0 45.102356l-45.102356 0z" fill-rule="evenodd"/><path fill="#333333" d="m723.62994 240.28609l22.551147 -45.102356l22.551208 45.102356z" fill-rule="evenodd"/><path fill="#b50a08" d="m844.5026 195.18373l45.102356 0l0 45.102356l-45.102356 0z" fill-rule="evenodd"/><path fill="#999999" d="m784.06696 195.18373l45.102356 0l0 45.102356l-45.102356 0z" fill-rule="evenodd"/><path fill="#333333" d="m723.62994 283.72177l22.551147 -22.551178l22.551208 22.551178l-22.551208 22.551208z" fill-rule="evenodd"/><path fill="#b50a08" d="m844.5026 261.1706l45.102356 0l0 45.102386l-45.102356 0z" fill-rule="evenodd"/><path fill="#999999" d="m784.06696 261.1706l45.102356 0l0 45.102386l-45.102356 0z" fill-rule="evenodd"/><path fill="#333333" d="m723.62994 344.385l22.551147 -17.22754l22.551147 17.22754l-8.61377 27.874725l-27.874756 0z" fill-rule="evenodd"/><path fill="#b50a08" d="m844.5026 327.15747l45.102356 0l0 45.102386l-45.102356 0z" fill-rule="evenodd"/><path fill="#999999" d="m784.06696 327.15747l45.102356 0l0 45.102386l-45.102356 0z" fill-rule="evenodd"/><path fill="#000000" fill-opacity="0.0" d="m659.49475 498.98688l0 -166.58267l49.039368 0l0 166.58267z" fill-rule="evenodd"/><path fill="#333333" d="m674.3472 433.92404l0 -2.28125l9.9375 0q2.578125 0 4.109375 0.59375q1.515625 0.578125 2.484375 2.109375q0.953125 1.53125 0.953125 4.015625q0 2.421875 -0.828125 3.953125q-0.84375 1.53125 -2.421875 2.1875q-1.578125 0.65625 -4.296875 0.65625l-9.9375 0l0 -2.265625l9.921875 0q2.234375 0 3.296875 -0.421875q1.0625 -0.421875 1.640625 -1.421875q0.5625 -1.015625 0.5625 -2.484375q0 -2.515625 -1.125 -3.578125q-1.140625 -1.0625 -4.375 -1.0625l-9.921875 0zm17.1875 -5.7851562l-12.453125 0l0 -1.90625l1.78125 0q-2.0625 -1.375 -2.0625 -3.953125q0 -1.125 0.40625 -2.0625q0.40625 -0.953125 1.0625 -1.421875q0.65625 -0.46875 1.5625 -0.65625q0.578125 -0.125 2.046875 -0.125l7.65625 0l0 2.109375l-7.578125 0q-1.28125 0 -1.921875 0.25q-0.640625 0.25 -1.015625 0.875q-0.390625 0.625 -0.390625 1.46875q0 1.34375 0.859375 2.328125q0.859375 0.984375 3.25 0.984375l6.796875 0l0 2.109375zm-14.75 -13.363281l-2.4375 0l0 -2.109375l2.4375 0l0 2.109375zm14.75 0l-12.453125 0l0 -2.109375l12.453125 0l0 2.109375zm-6.21875 -4.5351562q-3.46875 0 -5.125 -1.921875q-1.390625 -1.609375 -1.390625 -3.921875q0 -2.5625 1.6875 -4.1875q1.6875 -1.625 4.640625 -1.625q2.40625 0 3.78125 0.71875q1.375 0.71875 2.140625 2.09375q0.765625 1.375 0.765625 3.0q0 2.625 -1.671875 4.234375q-1.6875 1.609375 -4.828125 1.609375zm0 -2.171875q2.390625 0 3.578125 -1.03125q1.1875 -1.046875 1.1875 -2.640625q0 -1.5625 -1.1875 -2.609375q-1.203125 -1.046875 -3.65625 -1.046875q-2.3125 0 -3.5 1.0625q-1.1875 1.046875 -1.1875 2.59375q0 1.59375 1.1875 2.640625q1.1875 1.03125 3.578125 1.03125zm6.21875 -11.957031l-12.453125 0l0 -1.90625l1.78125 0q-2.0625 -1.375 -2.0625 -3.953125q0 -1.125 0.40625 -2.0625q0.40625 -0.953125 1.0625 -1.421875q0.65625 -0.46875 1.5625 -0.65625q0.578125 -0.125 2.046875 -0.125l7.65625 0l0 2.109375l-7.578125 0q-1.28125 0 -1.921875 0.25q-0.640625 0.25 -1.015625 0.875q-0.390625 0.625 -0.390625 1.46875q0 1.34375 0.859375 2.328125q0.859375 0.984375 3.25 0.984375l6.796875 0l0 2.109375z" fill-rule="nonzero"/><path fill="#333333" d="m723.3202 416.98032l0 0c0 -12.454681 10.096558 -22.551178 22.551208 -22.551178l0 0c5.980957 0 11.716919 2.3759155 15.946106 6.605072c4.229126 4.229187 6.6050415 9.965149 6.6050415 15.946106l0 0c0 12.454681 -10.096497 22.551178 -22.551147 22.551178l0 0c-12.454651 0 -22.551208 -10.096497 -22.551208 -22.551178z" fill-rule="evenodd"/><path fill="#b50a08" d="m844.81494 393.14435l45.102356 0l0 45.102356l-45.102356 0z" fill-rule="evenodd"/><path fill="#999999" d="m784.06696 394.42783l45.102356 0l0 45.102356l-45.102356 0z" fill-rule="evenodd"/><path fill="#333333" d="m723.3202 482.9672l22.551208 -22.551178l22.551147 22.551178l-11.275574 0l0 22.551178l-22.551147 0l0 -22.551178z" fill-rule="evenodd"/><path fill="#b50a08" d="m844.81494 459.13123l45.102356 0l0 45.102356l-45.102356 0z" fill-rule="evenodd"/><path fill="#999999" d="m784.06696 460.4147l45.102356 0l0 45.102356l-45.102356 0z" fill-rule="evenodd"/><path fill="#333333" d="m723.3202 537.67847l11.275635 0l0 -11.275574l22.551147 0l0 11.275574l11.275574 0l0 22.551208l-11.275574 0l0 11.275574l-22.551147 0l0 -11.275574l-11.275635 0z" fill-rule="evenodd"/><path fill="#b50a08" d="m844.81494 525.1181l45.102356 0l0 45.102356l-45.102356 0z" fill-rule="evenodd"/><path fill="#999999" d="m784.06696 526.40155l45.102356 0l0 45.102417l-45.102356 0z" fill-rule="evenodd"/><path fill="#333333" d="m723.32025 609.6173l17.2276 1.2207031E-4l5.3235474 -17.227661l5.3234863 17.227661l17.227661 -1.2207031E-4l-13.9375 10.647156l5.3237305 17.22754l-13.937378 -10.647339l-13.937378 10.647339l5.3237305 -17.22754z" fill-rule="evenodd"/><path fill="#b50a08" d="m844.81494 591.105l45.102356 0l0 45.102356l-45.102356 0z" fill-rule="evenodd"/><path fill="#999999" d="m784.06696 592.3884l45.102356 0l0 45.102356l-45.102356 0z" fill-rule="evenodd"/><path fill="#000000" fill-opacity="0.0" d="m107.973755 43.08399l117.41733 0l0 65.22835l-117.41733 0z" fill-rule="evenodd"/><path fill="#333333" d="m126.08085 82.80399l0 -22.906254l3.0312576 0l0 22.906254l-3.0312576 0zm8.015633 0l0 -16.59375l2.53125 0l0 2.359375q1.828125 -2.734375 5.28125 -2.734375q1.5 0 2.75 0.546875q1.265625 0.53125 1.890625 1.40625q0.625 0.875 0.875 2.078125q0.15625 0.78125 0.15625 2.734375l0 10.203125l-2.8125 0l0 -10.09375q0 -1.71875 -0.328125 -2.5625q-0.328125 -0.859375 -1.171875 -1.359375q-0.828125 -0.515625 -1.953125 -0.515625q-1.796875 0 -3.109375 1.140625q-1.296875 1.140625 -1.296875 4.328125l0 9.0625l-2.8125 0zm17.796875 6.359375l0 -22.953125l2.5625 0l0 2.15625q0.90625 -1.265625 2.046875 -1.890625q1.140625 -0.640625 2.765625 -0.640625q2.125 0 3.75 1.09375q1.625 1.09375 2.453125 3.09375q0.828125 1.984375 0.828125 4.359375q0 2.546875 -0.921875 4.59375q-0.90625 2.03125 -2.65625 3.125q-1.734375 1.078125 -3.65625 1.078125q-1.40625 0 -2.53125 -0.59375q-1.109375 -0.59375 -1.828125 -1.5l0 8.078125l-2.8125 0zm2.546875 -14.5625q0 3.203125 1.296875 4.734375q1.296875 1.53125 3.140625 1.53125q1.875 0 3.203125 -1.578125q1.34375 -1.59375 1.34375 -4.921875q0 -3.171875 -1.3125 -4.75q-1.296875 -1.578125 -3.109375 -1.578125q-1.796875 0 -3.1875 1.6875q-1.375 1.671875 -1.375 4.875zm26.125 8.203125l0 -2.4375q-1.9375 2.8125 -5.265625 2.8125q-1.46875 0 -2.75 -0.5625q-1.265625 -0.5625 -1.890625 -1.40625q-0.609375 -0.859375 -0.859375 -2.09375q-0.171875 -0.828125 -0.171875 -2.625l0 -10.28125l2.8125 0l0 9.203125q0 2.203125 0.171875 2.96875q0.265625 1.109375 1.125 1.75q0.859375 0.625 2.125 0.625q1.265625 0 2.375 -0.640625q1.109375 -0.65625 1.5625 -1.765625q0.46875 -1.125 0.46875 -3.25l0 -8.890625l2.8125 0l0 16.59375l-2.515625 0zm13.0625 -2.515625l0.40625 2.484375q-1.1875 0.25 -2.125 0.25q-1.53125 0 -2.375 -0.484375q-0.84375 -0.484375 -1.1875 -1.265625q-0.34375 -0.796875 -0.34375 -3.328125l0 -9.546875l-2.0625 0l0 -2.1875l2.0625 0l0 -4.109379l2.796875 -1.6875l0 5.796879l2.828125 0l0 2.1875l-2.828125 0l0 9.703125q0 1.203125 0.140625 1.546875q0.15625 0.34375 0.484375 0.546875q0.34375 0.203125 0.96875 0.203125q0.46875 0 1.234375 -0.109375zm1.625 -2.4375l2.78125 -0.4375q0.234375 1.671875 1.296875 2.5625q1.078125 0.890625 3.0 0.890625q1.9375 0 2.875 -0.78125q0.9375 -0.796875 0.9375 -1.859375q0 -0.953125 -0.828125 -1.5q-0.578125 -0.375 -2.875 -0.953125q-3.09375 -0.78125 -4.296875 -1.34375q-1.1875 -0.578125 -1.8125 -1.578125q-0.609375 -1.015625 -0.609375 -2.234375q0 -1.109375 0.5 -2.046875q0.515625 -0.953125 1.390625 -1.578125q0.65625 -0.484375 1.78125 -0.8125q1.140625 -0.34375 2.4375 -0.34375q1.953125 0 3.421875 0.5625q1.484375 0.5625 2.1875 1.53125q0.703125 0.953125 0.96875 2.5625l-2.75 0.375q-0.1875 -1.28125 -1.09375 -2.0q-0.890625 -0.71875 -2.53125 -0.71875q-1.9375 0 -2.765625 0.640625q-0.828125 0.640625 -0.828125 1.5q0 0.546875 0.34375 0.984375q0.34375 0.453125 1.078125 0.75q0.421875 0.15625 2.484375 0.71875q2.984375 0.796875 4.15625 1.3125q1.1875 0.5 1.859375 1.46875q0.671875 0.96875 0.671875 2.40625q0 1.40625 -0.828125 2.65625q-0.8125 1.234375 -2.359375 1.921875q-1.546875 0.671875 -3.5 0.671875q-3.234375 0 -4.9375 -1.34375q-1.6875 -1.34375 -2.15625 -3.984375z" fill-rule="nonzero"/><path fill="#000000" fill-opacity="0.0" d="m372.56168 18.469816l243.05515 0l0 98.45669l-243.05515 0z" fill-rule="evenodd"/><path fill="#333333" d="m436.22205 58.18982l8.796875 -22.90625l3.265625 0l9.375 22.90625l-3.453125 0l-2.671875 -6.9375l-9.578125 0l-2.515625 6.9375l-3.21875 0zm6.609375 -9.40625l7.765625 0l-2.390625 -6.34375q-1.09375 -2.890625 -1.625 -4.75q-0.4375 2.203125 -1.234375 4.375l-2.515625 6.71875zm16.828125 9.40625l0 -22.90625l2.8125 0l0 22.90625l-2.8125 0zm7.1875 -19.671875l0 -3.234375l2.8125 0l0 3.234375l-2.8125 0zm0 19.671875l0 -16.59375l2.8125 0l0 16.59375l-2.8125 0zm6.578125 1.375l2.734375 0.40625q0.171875 1.265625 0.953125 1.84375q1.046875 0.78125 2.859375 0.78125q1.953125 0 3.015625 -0.78125q1.0625 -0.78125 1.4375 -2.1875q0.21875 -0.859375 0.203125 -3.609375q-1.84375 2.171875 -4.59375 2.171875q-3.421875 0 -5.296875 -2.46875q-1.875 -2.46875 -1.875 -5.921875q0 -2.375 0.859375 -4.375q0.859375 -2.015625 2.484375 -3.109375q1.640625 -1.09375 3.84375 -1.09375q2.9375 0 4.84375 2.375l0 -2.0l2.59375 0l0 14.34375q0 3.875 -0.796875 5.484375q-0.78125 1.625 -2.5 2.5625q-1.703125 0.9375 -4.203125 0.9375q-2.96875 0 -4.796875 -1.34375q-1.828125 -1.328125 -1.765625 -4.015625zm2.328125 -9.96875q0 3.265625 1.296875 4.765625q1.296875 1.5 3.25 1.5q1.9375 0 3.25 -1.484375q1.3125 -1.5 1.3125 -4.6875q0 -3.046875 -1.359375 -4.59375q-1.34375 -1.546875 -3.25 -1.546875q-1.875 0 -3.1875 1.53125q-1.3125 1.515625 -1.3125 4.515625zm15.984375 8.59375l0 -16.59375l2.53125 0l0 2.359375q1.828125 -2.734375 5.28125 -2.734375q1.5 0 2.75 0.546875q1.265625 0.53125 1.890625 1.40625q0.625 0.875 0.875 2.078125q0.15625 0.78125 0.15625 2.734375l0 10.203125l-2.8125 0l0 -10.09375q0 -1.71875 -0.328125 -2.5625q-0.328125 -0.859375 -1.171875 -1.359375q-0.828125 -0.515625 -1.953125 -0.515625q-1.796875 0 -3.109375 1.140625q-1.296875 1.140625 -1.296875 4.328125l0 9.0625l-2.8125 0zm25.640625 -8.296875q0 -4.609375 2.5625 -6.828125q2.140625 -1.84375 5.21875 -1.84375q3.421875 0 5.59375 2.25q2.171875 2.234375 2.171875 6.1875q0 3.203125 -0.96875 5.046875q-0.953125 1.828125 -2.796875 2.84375q-1.828125 1.015625 -4.0 1.015625q-3.484375 0 -5.640625 -2.234375q-2.140625 -2.234375 -2.140625 -6.4375zm2.890625 0q0 3.1875 1.390625 4.78125q1.390625 1.578125 3.5 1.578125q2.09375 0 3.484375 -1.59375q1.390625 -1.59375 1.390625 -4.859375q0 -3.078125 -1.40625 -4.65625q-1.390625 -1.59375 -3.46875 -1.59375q-2.109375 0 -3.5 1.578125q-1.390625 1.578125 -1.390625 4.765625zm15.953125 8.296875l0 -16.59375l2.53125 0l0 2.359375q1.828125 -2.734375 5.28125 -2.734375q1.5 0 2.75 0.546875q1.265625 0.53125 1.890625 1.40625q0.625 0.875 0.875 2.078125q0.15625 0.78125 0.15625 2.734375l0 10.203125l-2.8125 0l0 -10.09375q0 -1.71875 -0.328125 -2.5625q-0.328125 -0.859375 -1.171875 -1.359375q-0.828125 -0.515625 -1.953125 -0.515625q-1.796875 0 -3.109375 1.140625q-1.296875 1.140625 -1.296875 4.328125l0 9.0625l-2.8125 0z" fill-rule="nonzero"/><path fill="#333333" d="m447.4486 90.111694l2.765625 0.359375q-0.453125 2.859375 -2.328125 4.484375q-1.859375 1.609375 -4.578125 1.609375q-3.40625 0 -5.484375 -2.21875q-2.0625 -2.234375 -2.0625 -6.390625q0 -2.6875 0.890625 -4.703125q0.890625 -2.015625 2.703125 -3.015625q1.828125 -1.015625 3.96875 -1.015625q2.703125 0 4.421875 1.375q1.71875 1.359375 2.203125 3.875l-2.734375 0.421875q-0.390625 -1.671875 -1.390625 -2.515625q-0.984375 -0.84375 -2.390625 -0.84375q-2.125 0 -3.453125 1.53125q-1.328125 1.515625 -1.328125 4.8125q0 3.34375 1.28125 4.859375q1.28125 1.515625 3.34375 1.515625q1.65625 0 2.765625 -1.015625q1.109375 -1.015625 1.40625 -3.125zm4.125 -2.21875q0 -4.609375 2.5625 -6.828125q2.140625 -1.84375 5.21875 -1.84375q3.421875 0 5.59375 2.25q2.171875 2.234375 2.171875 6.1875q0 3.203125 -0.96875 5.046875q-0.953125 1.828125 -2.796875 2.84375q-1.828125 1.015625 -4.0 1.015625q-3.484375 0 -5.640625 -2.234375q-2.140625 -2.234375 -2.140625 -6.4375zm2.890625 0q0 3.1875 1.390625 4.78125q1.390625 1.578125 3.5 1.578125q2.09375 0 3.484375 -1.59375q1.390625 -1.59375 1.390625 -4.859375q0 -3.078125 -1.40625 -4.65625q-1.390625 -1.59375 -3.46875 -1.59375q-2.109375 0 -3.5 1.578125q-1.390625 1.578125 -1.390625 4.765625zm15.890625 8.296875l0 -22.90625l2.8125 0l0 22.90625l-2.8125 0zm18.046875 0l0 -2.4375q-1.9375 2.8125 -5.265625 2.8125q-1.46875 0 -2.75 -0.5625q-1.265625 -0.5625 -1.890625 -1.40625q-0.609375 -0.859375 -0.859375 -2.09375q-0.171875 -0.828125 -0.171875 -2.625l0 -10.28125l2.8125 0l0 9.203125q0 2.203125 0.171875 2.96875q0.265625 1.109375 1.125 1.75q0.859375 0.625 2.125 0.625q1.265625 0 2.375 -0.640625q1.109375 -0.65625 1.5625 -1.765625q0.46875 -1.125 0.46875 -3.25l0 -8.890625l2.8125 0l0 16.59375l-2.515625 0zm6.921875 0l0 -16.59375l2.515625 0l0 2.328125q0.78125 -1.21875 2.078125 -1.953125q1.296875 -0.75 2.953125 -0.75q1.84375 0 3.015625 0.765625q1.1875 0.765625 1.671875 2.140625q1.96875 -2.90625 5.125 -2.90625q2.46875 0 3.796875 1.375q1.328125 1.359375 1.328125 4.203125l0 11.390625l-2.796875 0l0 -10.453125q0 -1.6875 -0.28125 -2.421875q-0.265625 -0.75 -0.984375 -1.203125q-0.71875 -0.453125 -1.6875 -0.453125q-1.75 0 -2.90625 1.171875q-1.15625 1.15625 -1.15625 3.71875l0 9.640625l-2.8125 0l0 -10.78125q0 -1.875 -0.6875 -2.8125q-0.6875 -0.9375 -2.25 -0.9375q-1.1875 0 -2.203125 0.625q-1.0 0.625 -1.453125 1.828125q-0.453125 1.203125 -0.453125 3.46875l0 8.609375l-2.8125 0zm26.65625 0l0 -16.59375l2.53125 0l0 2.359375q1.828125 -2.734375 5.28125 -2.734375q1.5 0 2.75 0.546875q1.265625 0.53125 1.890625 1.40625q0.625 0.875 0.875 2.078125q0.15625 0.78125 0.15625 2.734375l0 10.203125l-2.8125 0l0 -10.09375q0 -1.71875 -0.328125 -2.5625q-0.328125 -0.859375 -1.171875 -1.359375q-0.828125 -0.515625 -1.953125 -0.515625q-1.796875 0 -3.109375 1.140625q-1.296875 1.140625 -1.296875 4.328125l0 9.0625l-2.8125 0zm16.671875 -4.953125l2.78125 -0.4375q0.234375 1.671875 1.296875 2.5625q1.078125 0.890625 3.0 0.890625q1.9375 0 2.875 -0.78125q0.9375 -0.796875 0.9375 -1.859375q0 -0.953125 -0.828125 -1.5q-0.578125 -0.375 -2.875 -0.953125q-3.09375 -0.78125 -4.296875 -1.34375q-1.1875 -0.578125 -1.8125 -1.578125q-0.609375 -1.015625 -0.609375 -2.234375q0 -1.109375 0.5 -2.046875q0.515625 -0.953125 1.390625 -1.578125q0.65625 -0.484375 1.78125 -0.8125q1.140625 -0.34375 2.4375 -0.34375q1.953125 0 3.421875 0.5625q1.484375 0.5625 2.1875 1.53125q0.703125 0.953125 0.96875 2.5625l-2.75 0.375q-0.1875 -1.28125 -1.09375 -2.0q-0.890625 -0.71875 -2.53125 -0.71875q-1.9375 0 -2.765625 0.640625q-0.828125 0.640625 -0.828125 1.5q0 0.546875 0.34375 0.984375q0.34375 0.453125 1.078125 0.75q0.421875 0.15625 2.484375 0.71875q2.984375 0.796875 4.15625 1.3125q1.1875 0.5 1.859375 1.46875q0.671875 0.96875 0.671875 2.40625q0 1.40625 -0.828125 2.65625q-0.8125 1.234375 -2.359375 1.921875q-1.546875 0.671875 -3.5 0.671875q-3.234375 0 -4.9375 -1.34375q-1.6875 -1.34375 -2.15625 -3.984375z" fill-rule="nonzero"/><path fill="#000000" fill-opacity="0.0" d="m671.15485 14.160105l270.92914 0l0 98.456696l-270.92914 0z" fill-rule="evenodd"/><path fill="#333333" d="m729.3382 45.458233l4.484375 1.421875q-1.03125 3.75 -3.4375 5.578125q-2.390625 1.8125 -6.078125 1.8125q-4.5625 0 -7.5 -3.109375q-2.9375 -3.125 -2.9375 -8.53125q0 -5.71875 2.953125 -8.875q2.953125 -3.171877 7.765625 -3.171877q4.203125 0 6.828125 2.484377q1.5625 1.46875 2.34375 4.21875l-4.578125 1.09375q-0.40625 -1.78125 -1.703125 -2.8125q-1.28125 -1.03125 -3.125 -1.03125q-2.546875 0 -4.140625 1.828125q-1.578125 1.828125 -1.578125 5.921875q0 4.34375 1.5625 6.1875q1.5625 1.84375 4.0625 1.84375q1.84375 0 3.171875 -1.171875q1.328125 -1.171875 1.90625 -3.6875zm7.40625 -0.109375q0 -2.1875 1.078125 -4.234375q1.078125 -2.046875 3.046875 -3.125q1.984375 -1.078125 4.421875 -1.078125q3.765625 0 6.171875 2.453125q2.40625 2.4375 2.40625 6.171875q0 3.765625 -2.4375 6.25q-2.421875 2.46875 -6.109375 2.46875q-2.28125 0 -4.359375 -1.03125q-2.0625 -1.03125 -3.140625 -3.015625q-1.078125 -2.0 -1.078125 -4.859375zm4.5 0.234375q0 2.46875 1.171875 3.78125q1.171875 1.3125 2.890625 1.3125q1.71875 0 2.875 -1.3125q1.171875 -1.3125 1.171875 -3.8125q0 -2.4375 -1.171875 -3.75q-1.15625 -1.3125 -2.875 -1.3125q-1.71875 0 -2.890625 1.3125q-1.171875 1.3125 -1.171875 3.78125zm31.15625 8.296875l-4.390625 0l0 -8.46875q0 -2.6875 -0.28125 -3.46875q-0.28125 -0.796875 -0.921875 -1.234375q-0.625 -0.4375 -1.515625 -0.4375q-1.140625 0 -2.046875 0.625q-0.90625 0.625 -1.25 1.65625q-0.328125 1.03125 -0.328125 3.8125l0 7.515625l-4.390625 0l0 -16.59375l4.078125 0l0 2.4375q2.171875 -2.8125 5.46875 -2.8125q1.453125 0 2.65625 0.53125q1.203125 0.515625 1.8125 1.328125q0.625 0.8125 0.859375 1.84375q0.25 1.03125 0.25 2.953125l0 10.3125zm18.921875 -11.6875l-4.328125 0.78125q-0.21875 -1.296875 -1.0 -1.953125q-0.765625 -0.65625 -2.0 -0.65625q-1.640625 0 -2.625 1.140625q-0.96875 1.125 -0.96875 3.78125q0 2.953125 0.984375 4.171875q1.0 1.21875 2.671875 1.21875q1.25 0 2.046875 -0.703125q0.796875 -0.71875 1.125 -2.453125l4.3125 0.734375q-0.671875 2.96875 -2.578125 4.484375q-1.90625 1.515625 -5.109375 1.515625q-3.640625 0 -5.8125 -2.296875q-2.15625 -2.296875 -2.15625 -6.359375q0 -4.109375 2.171875 -6.390625q2.171875 -2.296875 5.875 -2.296875q3.03125 0 4.8125 1.3125q1.796875 1.296875 2.578125 3.96875zm6.609375 0.15625l-3.984375 -0.71875q0.671875 -2.40625 2.3125 -3.5625q1.640625 -1.15625 4.875 -1.15625q2.9375 0 4.375 0.703125q1.4375 0.6875 2.015625 1.765625q0.59375 1.0625 0.59375 3.921875l-0.046875 5.125q0 2.1875 0.203125 3.234375q0.21875 1.03125 0.796875 2.21875l-4.34375 0q-0.171875 -0.4375 -0.421875 -1.296875q-0.109375 -0.390625 -0.15625 -0.515625q-1.125 1.09375 -2.40625 1.640625q-1.28125 0.546875 -2.734375 0.546875q-2.5625 0 -4.046875 -1.390625q-1.46875 -1.390625 -1.46875 -3.515625q0 -1.40625 0.671875 -2.5q0.671875 -1.109375 1.875 -1.6875q1.21875 -0.59375 3.5 -1.03125q3.078125 -0.578125 4.265625 -1.078125l0 -0.4375q0 -1.265625 -0.625 -1.796875q-0.625 -0.546875 -2.359375 -0.546875q-1.171875 0 -1.828125 0.46875q-0.65625 0.453125 -1.0625 1.609375zm5.875 3.5625q-0.84375 0.28125 -2.671875 0.671875q-1.828125 0.390625 -2.390625 0.765625q-0.859375 0.609375 -0.859375 1.546875q0 0.921875 0.6875 1.59375q0.6875 0.671875 1.75 0.671875q1.1875 0 2.265625 -0.78125q0.796875 -0.59375 1.046875 -1.453125q0.171875 -0.5625 0.171875 -2.140625l0 -0.875zm16.25 -8.625l0 3.5l-3.0 0l0 6.6875q0 2.03125 0.078125 2.375q0.09375 0.328125 0.390625 0.546875q0.3125 0.21875 0.75 0.21875q0.609375 0 1.765625 -0.421875l0.375 3.40625q-1.53125 0.65625 -3.46875 0.65625q-1.1875 0 -2.140625 -0.390625q-0.953125 -0.40625 -1.40625 -1.03125q-0.4375 -0.640625 -0.609375 -1.71875q-0.140625 -0.765625 -0.140625 -3.09375l0 -7.234375l-2.015625 0l0 -3.5l2.015625 0l0 -3.296875l4.40625 -2.562502l0 5.859377l3.0 0z" fill-rule="nonzero"/><path fill="#333333" d="m834.2757 48.536358l2.90625 0.359375q-0.6875 2.546875 -2.546875 3.953125q-1.859375 1.40625 -4.75 1.40625q-3.640625 0 -5.78125 -2.234375q-2.125 -2.25 -2.125 -6.296875q0 -4.1875 2.15625 -6.5q2.15625 -2.3125 5.59375 -2.3125q3.328125 0 5.4375 2.265625q2.109375 2.265625 2.109375 6.375q0 0.25 -0.015625 0.75l-12.375 0q0.15625 2.734375 1.546875 4.1875q1.390625 1.453125 3.46875 1.453125q1.546875 0 2.640625 -0.8125q1.09375 -0.8125 1.734375 -2.59375zm-9.234375 -4.546875l9.265625 0q-0.1875 -2.09375 -1.0625 -3.140625q-1.34375 -1.625 -3.484375 -1.625q-1.9375 0 -3.265625 1.296875q-1.3125 1.296875 -1.453125 3.46875zm15.671875 9.890625l0 -16.59375l2.53125 0l0 2.359375q1.828125 -2.734375 5.28125 -2.734375q1.5 0 2.75 0.546875q1.265625 0.53125 1.890625 1.40625q0.625 0.875 0.875 2.078125q0.15625 0.78125 0.15625 2.734375l0 10.203125l-2.8125 0l0 -10.09375q0 -1.71875 -0.328125 -2.5625q-0.328125 -0.859375 -1.171875 -1.359375q-0.828125 -0.515625 -1.953125 -0.515625q-1.796875 0 -3.109375 1.140625q-1.296875 1.140625 -1.296875 4.328125l0 9.0625l-2.8125 0zm28.625 -2.046875q-1.5625 1.328125 -3.015625 1.875q-1.4375 0.546875 -3.09375 0.546875q-2.734375 0 -4.203125 -1.328125q-1.46875 -1.34375 -1.46875 -3.421875q0 -1.21875 0.546875 -2.21875q0.5625 -1.015625 1.453125 -1.625q0.90625 -0.609375 2.03125 -0.921875q0.828125 -0.21875 2.5 -0.421875q3.40625 -0.40625 5.015625 -0.96875q0.015625 -0.578125 0.015625 -0.734375q0 -1.71875 -0.796875 -2.421875q-1.078125 -0.953125 -3.203125 -0.953125q-1.984375 0 -2.9375 0.703125q-0.9375 0.6875 -1.390625 2.453125l-2.75 -0.375q0.375 -1.765625 1.234375 -2.84375q0.859375 -1.09375 2.484375 -1.671875q1.625 -0.59375 3.765625 -0.59375q2.125 0 3.453125 0.5q1.328125 0.5 1.953125 1.265625q0.625 0.75 0.875 1.90625q0.140625 0.71875 0.140625 2.59375l0 3.75q0 3.921875 0.171875 4.96875q0.1875 1.03125 0.71875 1.984375l-2.9375 0q-0.4375 -0.875 -0.5625 -2.046875zm-0.234375 -6.28125q-1.53125 0.625 -4.59375 1.0625q-1.734375 0.25 -2.453125 0.5625q-0.71875 0.3125 -1.109375 0.921875q-0.390625 0.59375 -0.390625 1.328125q0 1.125 0.84375 1.875q0.859375 0.75 2.5 0.75q1.625 0 2.890625 -0.703125q1.265625 -0.71875 1.859375 -1.953125q0.453125 -0.953125 0.453125 -2.8125l0 -1.03125zm13.34375 5.8125l0.40625 2.484375q-1.1875 0.25 -2.125 0.25q-1.53125 0 -2.375 -0.484375q-0.84375 -0.484375 -1.1875 -1.265625q-0.34375 -0.796875 -0.34375 -3.328125l0 -9.546875l-2.0625 0l0 -2.1875l2.0625 0l0 -4.109375l2.796875 -1.6875019l0 5.796877l2.828125 0l0 2.1875l-2.828125 0l0 9.703125q0 1.203125 0.140625 1.546875q0.15625 0.34375 0.484375 0.546875q0.34375 0.203125 0.96875 0.203125q0.46875 0 1.234375 -0.109375zm14.109375 -2.828125l2.90625 0.359375q-0.6875 2.546875 -2.546875 3.953125q-1.859375 1.40625 -4.75 1.40625q-3.640625 0 -5.78125 -2.234375q-2.125 -2.25 -2.125 -6.296875q0 -4.1875 2.15625 -6.5q2.15625 -2.3125 5.59375 -2.3125q3.328125 0 5.4375 2.265625q2.109375 2.265625 2.109375 6.375q0 0.25 -0.015625 0.75l-12.375 0q0.15625 2.734375 1.546875 4.1875q1.390625 1.453125 3.46875 1.453125q1.546875 0 2.640625 -0.8125q1.09375 -0.8125 1.734375 -2.59375zm-9.234375 -4.546875l9.265625 0q-0.1875 -2.09375 -1.0625 -3.140625q-1.34375 -1.625 -3.484375 -1.625q-1.9375 0 -3.265625 1.296875q-1.3125 1.296875 -1.453125 3.46875z" fill-rule="nonzero"/><path fill="#333333" d="m705.7288 85.80198l2.765625 0.359375q-0.453125 2.859375 -2.328125 4.484375q-1.859375 1.609375 -4.578125 1.609375q-3.40625 0 -5.484375 -2.21875q-2.0625 -2.234375 -2.0625 -6.390625q0 -2.6875 0.890625 -4.703125q0.890625 -2.015625 2.703125 -3.015625q1.828125 -1.015625 3.96875 -1.015625q2.703125 0 4.421875 1.375q1.71875 1.359375 2.203125 3.875l-2.734375 0.421875q-0.390625 -1.671875 -1.390625 -2.515625q-0.984375 -0.84375 -2.390625 -0.84375q-2.125 0 -3.453125 1.53125q-1.328125 1.515625 -1.328125 4.8125q0 3.34375 1.28125 4.859375q1.28125 1.515625 3.34375 1.515625q1.65625 0 2.765625 -1.015625q1.109375 -1.015625 1.40625 -3.125zm4.125 -2.21875q0 -4.609375 2.5625 -6.828125q2.140625 -1.84375 5.21875 -1.84375q3.421875 0 5.59375 2.25q2.171875 2.234375 2.171875 6.1875q0 3.203125 -0.96875 5.046875q-0.953125 1.828125 -2.796875 2.84375q-1.828125 1.015625 -4.0 1.015625q-3.484375 0 -5.640625 -2.234375q-2.140625 -2.234375 -2.140625 -6.4375zm2.890625 0q0 3.1875 1.390625 4.78125q1.390625 1.578125 3.5 1.578125q2.09375 0 3.484375 -1.59375q1.390625 -1.59375 1.390625 -4.859375q0 -3.078125 -1.40625 -4.65625q-1.390625 -1.59375 -3.46875 -1.59375q-2.109375 0 -3.5 1.578125q-1.390625 1.578125 -1.390625 4.765625zm15.890625 8.296875l0 -22.90625l2.8125 0l0 22.90625l-2.8125 0zm18.046875 0l0 -2.4375q-1.9375 2.8125 -5.265625 2.8125q-1.46875 0 -2.75 -0.5625q-1.265625 -0.5625 -1.890625 -1.40625q-0.609375 -0.859375 -0.859375 -2.09375q-0.171875 -0.828125 -0.171875 -2.625l0 -10.28125l2.8125 0l0 9.203125q0 2.203125 0.171875 2.96875q0.265625 1.109375 1.125 1.75q0.859375 0.625 2.125 0.625q1.265625 0 2.375 -0.640625q1.109375 -0.65625 1.5625 -1.765625q0.46875 -1.125 0.46875 -3.25l0 -8.890625l2.8125 0l0 16.59375l-2.515625 0zm6.921875 0l0 -16.59375l2.515625 0l0 2.328125q0.78125 -1.21875 2.078125 -1.953125q1.296875 -0.75 2.953125 -0.75q1.84375 0 3.015625 0.765625q1.1875 0.765625 1.671875 2.140625q1.96875 -2.90625 5.125 -2.90625q2.46875 0 3.796875 1.375q1.328125 1.359375 1.328125 4.203125l0 11.390625l-2.796875 0l0 -10.453125q0 -1.6875 -0.28125 -2.421875q-0.265625 -0.75 -0.984375 -1.203125q-0.71875 -0.453125 -1.6875 -0.453125q-1.75 0 -2.90625 1.171875q-1.15625 1.15625 -1.15625 3.71875l0 9.640625l-2.8125 0l0 -10.78125q0 -1.875 -0.6875 -2.8125q-0.6875 -0.9375 -2.25 -0.9375q-1.1875 0 -2.203125 0.625q-1.0 0.625 -1.453125 1.828125q-0.453125 1.203125 -0.453125 3.46875l0 8.609375l-2.8125 0zm26.65625 0l0 -16.59375l2.53125 0l0 2.359375q1.828125 -2.734375 5.28125 -2.734375q1.5 0 2.75 0.546875q1.265625 0.53125 1.890625 1.40625q0.625 0.875 0.875 2.078125q0.15625 0.78125 0.15625 2.734375l0 10.203125l-2.8125 0l0 -10.09375q0 -1.71875 -0.328125 -2.5625q-0.328125 -0.859375 -1.171875 -1.359375q-0.828125 -0.515625 -1.953125 -0.515625q-1.796875 0 -3.109375 1.140625q-1.296875 1.140625 -1.296875 4.328125l0 9.0625l-2.8125 0zm16.671875 -4.953125l2.78125 -0.4375q0.234375 1.671875 1.296875 2.5625q1.078125 0.890625 3.0 0.890625q1.9375 0 2.875 -0.78125q0.9375 -0.796875 0.9375 -1.859375q0 -0.953125 -0.828125 -1.5q-0.578125 -0.375 -2.875 -0.953125q-3.09375 -0.78125 -4.296875 -1.34375q-1.1875 -0.578125 -1.8125 -1.578125q-0.609375 -1.015625 -0.609375 -2.234375q0 -1.109375 0.5 -2.046875q0.515625 -0.953125 1.390625 -1.578125q0.65625 -0.484375 1.78125 -0.8125q1.140625 -0.34375 2.4375 -0.34375q1.953125 0 3.421875 0.5625q1.484375 0.5625 2.1875 1.53125q0.703125 0.953125 0.96875 2.5625l-2.75 0.375q-0.1875 -1.28125 -1.09375 -2.0q-0.890625 -0.71875 -2.53125 -0.71875q-1.9375 0 -2.765625 0.640625q-0.828125 0.640625 -0.828125 1.5q0 0.546875 0.34375 0.984375q0.34375 0.453125 1.078125 0.75q0.421875 0.15625 2.484375 0.71875q2.984375 0.796875 4.15625 1.3125q1.1875 0.5 1.859375 1.46875q0.671875 0.96875 0.671875 2.40625q0 1.40625 -0.828125 2.65625q-0.8125 1.234375 -2.359375 1.921875q-1.546875 0.671875 -3.5 0.671875q-3.234375 0 -4.9375 -1.34375q-1.6875 -1.34375 -2.15625 -3.984375zm31.390625 11.6875q-2.328125 -2.9375 -3.9375 -6.875q-1.609375 -3.9375 -1.609375 -8.15625q0 -3.71875 1.203125 -7.125q1.40625 -3.953125 4.34375 -7.875l2.015625 0q-1.890625 3.25 -2.5 4.640625q-0.953125 2.15625 -1.5 4.5q-0.671875 2.921875 -0.671875 5.875q0 7.515625 4.671875 15.015625l-2.015625 0zm16.15625 -6.734375l0 -2.4375q-1.9375 2.8125 -5.265625 2.8125q-1.46875 0 -2.75 -0.5625q-1.265625 -0.5625 -1.890625 -1.40625q-0.609375 -0.859375 -0.859375 -2.09375q-0.171875 -0.828125 -0.171875 -2.625l0 -10.28125l2.8125 0l0 9.203125q0 2.203125 0.171875 2.96875q0.265625 1.109375 1.125 1.75q0.859375 0.625 2.125 0.625q1.265625 0 2.375 -0.640625q1.109375 -0.65625 1.5625 -1.765625q0.46875 -1.125 0.46875 -3.25l0 -8.890625l2.8125 0l0 16.59375l-2.515625 0zm6.921875 0l0 -16.59375l2.53125 0l0 2.359375q1.828125 -2.734375 5.28125 -2.734375q1.5 0 2.75 0.546875q1.265625 0.53125 1.890625 1.40625q0.625 0.875 0.875 2.078125q0.15625 0.78125 0.15625 2.734375l0 10.203125l-2.8125 0l0 -10.09375q0 -1.71875 -0.328125 -2.5625q-0.328125 -0.859375 -1.171875 -1.359375q-0.828125 -0.515625 -1.953125 -0.515625q-1.796875 0 -3.109375 1.140625q-1.296875 1.140625 -1.296875 4.328125l0 9.0625l-2.8125 0zm17.8125 -19.671875l0 -3.234375l2.8125 0l0 3.234375l-2.8125 0zm0 19.671875l0 -16.59375l2.8125 0l0 16.59375l-2.8125 0zm6.046875 -8.296875q0 -4.609375 2.5625 -6.828125q2.140625 -1.84375 5.21875 -1.84375q3.421875 0 5.59375 2.25q2.171875 2.234375 2.171875 6.1875q0 3.203125 -0.96875 5.046875q-0.953125 1.828125 -2.796875 2.84375q-1.828125 1.015625 -4.0 1.015625q-3.484375 0 -5.640625 -2.234375q-2.140625 -2.234375 -2.140625 -6.4375zm2.890625 0q0 3.1875 1.390625 4.78125q1.390625 1.578125 3.5 1.578125q2.09375 0 3.484375 -1.59375q1.390625 -1.59375 1.390625 -4.859375q0 -3.078125 -1.40625 -4.65625q-1.390625 -1.59375 -3.46875 -1.59375q-2.109375 0 -3.5 1.578125q-1.390625 1.578125 -1.390625 4.765625zm15.953125 8.296875l0 -16.59375l2.53125 0l0 2.359375q1.828125 -2.734375 5.28125 -2.734375q1.5 0 2.75 0.546875q1.265625 0.53125 1.890625 1.40625q0.625 0.875 0.875 2.078125q0.15625 0.78125 0.15625 2.734375l0 10.203125l-2.8125 0l0 -10.09375q0 -1.71875 -0.328125 -2.5625q-0.328125 -0.859375 -1.171875 -1.359375q-0.828125 -0.515625 -1.953125 -0.515625q-1.796875 0 -3.109375 1.140625q-1.296875 1.140625 -1.296875 4.328125l0 9.0625l-2.8125 0zm19.640625 6.734375l-2.015625 0q4.671875 -7.5 4.671875 -15.015625q0 -2.9375 -0.671875 -5.828125q-0.53125 -2.34375 -1.484375 -4.5q-0.609375 -1.40625 -2.515625 -4.6875l2.015625 0q2.9375 3.921875 4.34375 7.875q1.203125 3.40625 1.203125 7.125q0 4.21875 -1.625 8.15625q-1.609375 3.9375 -3.921875 6.875z" fill-rule="nonzero"/><path fill="#999999" d="m286.66666 60.257217l38.677185 0l0 -11.275589l22.551178 22.551178l-22.551178 22.551186l0 -11.275597l-38.677185 0z" fill-rule="evenodd"/><path stroke="#000000" stroke-width="1.0" stroke-linejoin="round" stroke-linecap="butt" d="m286.66666 60.257217l38.677185 0l0 -11.275589l22.551178 22.551178l-22.551178 22.551186l0 -11.275597l-38.677185 0z" fill-rule="evenodd"/><path fill="#999999" d="m609.9265 60.257217l38.677185 0l0 -11.275589l22.551147 22.551178l-22.551147 22.551186l0 -11.275597l-38.677185 0z" fill-rule="evenodd"/><path stroke="#000000" stroke-width="1.0" stroke-linejoin="round" stroke-linecap="butt" d="m609.9265 60.257217l38.677185 0l0 -11.275589l22.551147 22.551178l-22.551147 22.551186l0 -11.275597l-38.677185 0z" fill-rule="evenodd"/></g></svg>